<?xml version="1.0" standalone="no"?><!DOCTYPE svg PUBLIC "-//W3C//DTD SVG 1.1//EN" "http://www.w3.org/Graphics/SVG/1.1/DTD/svg11.dtd"><svg t="1547534463599" class="icon" style="" viewBox="0 0 1024 1024" version="1.1" xmlns="http://www.w3.org/2000/svg" p-id="13389" xmlns:xlink="http://www.w3.org/1999/xlink" width="200" height="200"><defs><style type="text/css"></style></defs><path d="M118 65.6h288.1M401.2 620.7c-69.9 0-135.7-27.2-185.2-76.7s-76.7-115.2-76.7-185.2 27.2-135.7 76.7-185.2 115.2-76.7 185.2-76.7 135.7 27.2 185.2 76.7 76.7 115.2 76.7 185.2-27.3 135.7-76.7 185.2c-49.5 49.4-115.3 76.7-185.2 76.7z m0-459.8c-109.1 0-197.9 88.8-197.9 197.9 0 109.1 88.8 197.9 197.9 197.9s197.9-88.8 197.9-197.9c0-109.1-88.8-197.9-197.9-197.9z" fill="#707070" p-id="13390"></path><path d="M705.4 927.1c-17.7 0-32-14.3-32-32 0-150.1-122.1-272.2-272.2-272.2S129 745 129 895.1c0 17.7-14.3 32-32 32s-32-14.3-32-32c0-45.4 8.9-89.4 26.4-130.9 16.9-40 41.2-76 72-106.9 30.9-30.9 66.8-55.1 106.9-72 41.5-17.5 85.5-26.4 130.9-26.4s89.4 8.9 130.9 26.4c40 16.9 76 41.2 106.9 72 30.9 30.9 55.1 66.8 72 106.9 17.5 41.5 26.4 85.5 26.4 130.9 0 17.7-14.3 32-32 32z" fill="#707070" p-id="13391"></path><path d="M680.4 606.1c-17.7 0-32-14.3-32-32s14.3-32 32-32c85.1 0 154.3-69.2 154.3-154.3s-69.2-154.3-154.3-154.3c-17.7 0-32-14.3-32-32s14.3-32 32-32c58.3 0 113.2 22.7 154.4 64s64 96.1 64 154.4c0 58.3-22.7 113.2-64 154.4-41.2 41.1-96.1 63.8-154.4 63.8z" fill="#707070" p-id="13392"></path><path d="M927 854.5c-17.7 0-32-14.3-32-32C895 704.2 798.7 608 680.4 608c-17.7 0-32-14.3-32-32s14.3-32 32-32c74.4 0 144.4 29 197 81.6 52.6 52.6 81.6 122.6 81.6 197 0 17.6-14.3 31.9-32 31.9z" fill="#707070" p-id="13393"></path></svg>