<?xml version="1.0" standalone="no"?><!DOCTYPE svg PUBLIC "-//W3C//DTD SVG 1.1//EN" "http://www.w3.org/Graphics/SVG/1.1/DTD/svg11.dtd"><svg t="1547621672928" class="icon" style="" viewBox="0 0 1024 1024" version="1.1" xmlns="http://www.w3.org/2000/svg" p-id="10364" xmlns:xlink="http://www.w3.org/1999/xlink" width="200" height="200"><defs><style type="text/css"></style></defs><path d="M934.4 947.2h-64v-19.2c0-166.4-153.6-307.2-345.6-307.2-185.6 0-345.6 140.8-345.6 307.2v19.2h-64v-19.2c0-198.4 185.6-371.2 409.6-371.2s409.6 166.4 409.6 371.2v19.2z" fill="#ffffff" p-id="10365"></path><path d="M524.8 588.8c-147.2 0-268.8-121.6-268.8-268.8 0-147.2 121.6-268.8 268.8-268.8 147.2 0 268.8 121.6 268.8 268.8 0 153.6-121.6 268.8-268.8 268.8z m0-467.2c-115.2 0-204.8 89.6-204.8 204.8 0 115.2 89.6 204.8 204.8 204.8 115.2 0 204.8-89.6 204.8-204.8 0-121.6-89.6-204.8-204.8-204.8z" fill="#ffffff" p-id="10366"></path></svg>