<?xml version="1.0" standalone="no"?><!DOCTYPE svg PUBLIC "-//W3C//DTD SVG 1.1//EN" "http://www.w3.org/Graphics/SVG/1.1/DTD/svg11.dtd"><svg t="1547537950119" class="icon" style="" viewBox="0 0 1024 1024" version="1.1" xmlns="http://www.w3.org/2000/svg" p-id="18842" xmlns:xlink="http://www.w3.org/1999/xlink" width="200" height="200"><defs><style type="text/css"></style></defs><path d="M508.84352 14.08c-125.52448 0-227.26016 101.74464-227.26016 227.26016l0 227.26016c0 125.51296 101.7344 227.26016 227.26016 227.26016 125.504 0 227.26016-101.74592 227.26016-227.26016L736.10368 241.34016C736.1024 115.82464 634.34752 14.08 508.84352 14.08zM690.65088 468.59904c0 100.41472-81.40416 181.80736-181.80736 181.80736-100.42368 0-181.80736-81.39264-181.80736-181.80736L327.03616 241.34016c0-100.41472 81.38368-181.80736 181.80736-181.80736 100.4032 0 181.80736 81.39264 181.80736 181.80736L690.65088 468.59904z" p-id="18843" fill="#ffffff"></path><path d="M804.28032 416.0448l0 80.96128c0 163.16544-132.27136 295.43808-295.4368 295.43808-163.16288 0-295.43808-132.27136-295.43808-295.43808l0-80.96128-45.45152 0 0 80.96128c0 188.26624 152.62464 340.8896 340.8896 340.8896 188.26624 0 340.8896-152.62336 340.8896-340.8896l0-80.96128L804.28032 416.0448z" p-id="18844" fill="#ffffff"></path><path d="M486.1184 836.64l45.45152 0 0 125.77152-45.45152 0 0-125.77152Z" p-id="18845" fill="#ffffff"></path><path d="M307.86176 962.41152l401.9648 0 0 45.45152-401.9648 0 0-45.45152Z" p-id="18846" fill="#ffffff"></path></svg>