<?xml version="1.0" standalone="no"?><!DOCTYPE svg PUBLIC "-//W3C//DTD SVG 1.1//EN" "http://www.w3.org/Graphics/SVG/1.1/DTD/svg11.dtd"><svg t="1547534542170" class="icon" style="" viewBox="0 0 1024 1024" version="1.1" xmlns="http://www.w3.org/2000/svg" p-id="14309" xmlns:xlink="http://www.w3.org/1999/xlink" width="200" height="200"><defs><style type="text/css"></style></defs><path d="M593.92 578.56C716.8 542.72 806.912 429.056 806.912 294.912 805.888 132.096 673.792 0 510.976 0S216.064 132.096 216.064 294.912c0 134.144 90.112 246.784 211.968 282.624C211.968 613.376 39.936 780.288 4.096 1002.496l56.32 9.216c35.84-222.208 225.28-382.976 450.56-382.976C738.304 628.736 932.864 798.72 962.56 1024l56.32-7.168C989.184 790.528 813.056 614.4 593.92 578.56zM273.408 294.912C273.408 163.84 379.904 57.344 510.976 57.344c131.072 0 237.568 106.496 237.568 237.568S642.048 533.504 510.976 533.504c-131.072 0-237.568-107.52-237.568-238.592z" fill="#7F7F7F" p-id="14310"></path></svg>