<?xml version="1.0" standalone="no"?><!DOCTYPE svg PUBLIC "-//W3C//DTD SVG 1.1//EN" "http://www.w3.org/Graphics/SVG/1.1/DTD/svg11.dtd"><svg t="1547601998231" class="icon" style="" viewBox="0 0 1024 1024" version="1.1" xmlns="http://www.w3.org/2000/svg" p-id="8154" xmlns:xlink="http://www.w3.org/1999/xlink" width="200" height="200"><defs><style type="text/css"></style></defs><path d="M964.737885 475.86831h-171.955103c-32.317576 0-59.19556 24.062195-59.19556 58.811589v430.431718c0 32.189586 26.877984 58.875584 59.19556 58.875584h171.955103A57.979652 57.979652 0 0 0 1023.933446 965.047621V534.615904a59.515536 59.515536 0 0 0-59.195561-58.747594z m16.254781 478.492113a18.238632 18.238632 0 0 1-18.814589 18.622603h-164.019698a18.238632 18.238632 0 0 1-18.814589-18.622603V539.991501c0-10.751194 8.063395-18.750594 18.814589-18.750594h164.019698c10.751194 0 18.814589 7.9994 18.814589 18.750594v414.368922zM599.325291 0H427.370188c-32.317576 0-59.19556 24.062195-59.19556 58.811589V965.047621c0 32.189586 26.877984 58.875584 59.131565 58.875585h172.019098a57.851661 57.851661 0 0 0 59.06757-58.875585V58.811589c0-34.749394-29.565783-58.811589-59.06757-58.811589z m13.438992 954.360423a18.238632 18.238632 0 0 1-18.814588 18.622603H430.057986a18.238632 18.238632 0 0 1-18.814588-18.622603V66.810989c0-10.687198 8.063395-18.686599 18.814588-18.686598h163.955704c10.751194 0 18.814589 7.9994 18.814589 18.686598v887.549434zM228.473105 245.933555H59.141805a57.787666 57.787666 0 0 0-59.131565 58.875584V965.047621c0 32.189586 26.813989 58.875584 59.131565 58.875585h172.019099a57.915656 57.915656 0 0 0 59.131565-58.875585V304.809139c-2.687798-32.125591-26.877984-58.875584-61.819364-58.875584z m16.126791 708.426868a18.238632 18.238632 0 0 1-18.814589 18.622603H61.829604a18.174637 18.174637 0 0 1-18.750594-18.622603V312.808539c0-10.751194 7.9994-18.750594 18.750594-18.750593h163.955703c10.751194 0 18.814589 7.9994 18.814589 18.750593v641.551884z m720.137989-475.804315h-171.955103c-32.317576 0-59.19556 23.9982-59.19556 58.811589v427.74392c0 32.189586 26.877984 58.875584 59.19556 58.875584h171.955103A57.979652 57.979652 0 0 0 1023.933446 965.047621V537.303702c0-34.749394-26.877984-58.747594-59.195561-58.747594zM599.325291 0H427.370188c-32.317576 0-59.19556 24.062195-59.19556 58.811589V965.047621c0 32.189586 26.877984 58.875584 59.131565 58.875585h172.019098a57.851661 57.851661 0 0 0 59.06757-58.875585V58.811589c0-32.125591-29.565783-58.811589-59.06757-58.811589zM228.473105 248.621353H59.141805A57.787666 57.787666 0 0 0 0.01024 307.432943V965.047621c0 32.189586 26.813989 58.875584 59.131565 58.875585h172.019099a57.915656 57.915656 0 0 0 59.131565-58.875585V307.432943c-2.687798-32.061595-26.877984-58.811589-61.819364-58.81159z" p-id="8155" fill="#ffffff"></path></svg>