<?xml version="1.0" standalone="no"?><!DOCTYPE svg PUBLIC "-//W3C//DTD SVG 1.1//EN" "http://www.w3.org/Graphics/SVG/1.1/DTD/svg11.dtd"><svg t="1547601952934" class="icon" style="" viewBox="0 0 1026 1024" version="1.1" xmlns="http://www.w3.org/2000/svg" p-id="7324" xmlns:xlink="http://www.w3.org/1999/xlink" width="200.390625" height="200"><defs><style type="text/css"></style></defs><path d="M52.893105 206.58731h508.951651c30.537039 0 50.901059-20.53785 50.901059-51.344624 0-30.808773-20.36402-51.344624-50.901059-51.344624H52.893105C22.354068 103.898062 1.99804 129.569875 1.99804 155.242686c0 25.671813 20.356028 51.344624 50.895065 51.344624z m0 359.413368h366.449464c30.537039 0 50.893067-20.535852 50.893067-51.344624 0-30.806774-20.356028-51.342626-50.893067-51.342626H52.893105C22.354068 463.313428 1.99804 483.84928 1.99804 514.656054 1.99804 545.464827 22.354068 566.000678 52.893105 566.000678z m198.493252 251.590157H52.893105C22.354068 817.590835 1.99804 838.126686 1.99804 868.935459c0 30.806774 20.356028 51.344624 50.895065 51.344624h198.493252c30.537039 0 50.895065-20.53785 50.895065-51.344624 0-30.808773-20.358026-51.344624-50.895065-51.344624z m600.565765-15.406884c-10.181011 71.88647-61.076076 143.765947-137.417176 184.845642-117.061147 61.609553-249.388317 46.207664-295.191378-46.214657-45.810054-87.28636 5.091005-210.51146 122.144161-277.26197 71.258086-41.073701 152.690191-46.208663 213.760272-25.672811v-585.325718c0-20.541846 10.181011-41.077697 30.53704-46.213658 20.36402-10.266927 40.720048-5.13696 55.985071 10.270923l167.956212 159.166836c20.356028 20.535852 20.356028 51.344624 0 71.880476-20.356028 20.543844-50.895065 20.543844-71.251093 0l-81.434102-77.015438v611.005522l-5.089007 20.534853z m0 0" p-id="7325" fill="#ffffff"></path></svg>