<?xml version="1.0" standalone="no"?><!DOCTYPE svg PUBLIC "-//W3C//DTD SVG 1.1//EN" "http://www.w3.org/Graphics/SVG/1.1/DTD/svg11.dtd"><svg t="1547601908193" class="icon" style="" viewBox="0 0 1024 1024" version="1.1" xmlns="http://www.w3.org/2000/svg" p-id="5865" xmlns:xlink="http://www.w3.org/1999/xlink" width="200" height="200"><defs><style type="text/css"></style></defs><path d="M950.866441 1024H73.133559A73.155254 73.155254 0 0 1 0 950.866441v-768a73.155254 73.155254 0 0 1 73.133559-73.155255h73.155255v36.577628a109.711186 109.711186 0 0 0 219.422372 0V109.711186h292.577628v36.577628a109.711186 109.711186 0 1 0 219.422372 0V109.711186h73.155255A73.155254 73.155254 0 0 1 1024 182.844746v768A73.155254 73.155254 0 0 1 950.866441 1024z m0-658.288814H73.133559v585.155255h877.732882z m-546.061017 286.372882a67.427797 67.427797 0 0 0 10.847457-36.317288q0-42.435254-45.559322-42.435255-39.63661 0-75.932203 31.501017v-59.617627q40.048814-26.033898 90.446102-25.925423 47.121356 0 73.610847 23.647457t26.489492 63.95661q0 53.781695-64.520678 111.229831l-63.240678 56.124746v1.28H481.627119v56.14644h-202.261695v-52.696949l88.059661-84.219661q26.554576-25.491525 37.380339-42.717288z m247.517288 121.990508q14.492203-11.129492 14.492203-31.088813 0-20.56678-17.898305-31.717966t-49.182373-11.151187H572.094915v-51.850847h25.491526q60.008136 0 60.008135-39.85356 0-37.553898-46.08-37.488813-30.850169 0-60.008135 19.915932v-55.278644q32.347119-16.314576 75.411525-16.271186 47.077966 0 73.393898 21.195932a67.557966 67.557966 0 0 1 26.250848 55.08339q0 60.225085-61.071187 75.411525v1.063051q32.542373 4.078644 51.41695 23.647457a66.711864 66.711864 0 0 1 18.874576 48.097628q0 43.064407-31.501017 68.122033t-86.99661 25.101017q-47.533559 0-77.342373-15.425084v-58.92339q30.828475 22.475932 72.005424 22.497627c17.355932 0 30.72-3.666441 40.374237-11.086102z m114.549152-554.652203A72.005424 72.005424 0 0 1 694.844746 147.525424V72.005424a72.027119 72.027119 0 0 1 144.032542 0V147.525424a71.983729 71.983729 0 0 1-72.005424 72.005423z m-512 0A71.983729 71.983729 0 0 1 182.844746 147.525424V72.005424a72.027119 72.027119 0 0 1 144.032542 0V147.525424a72.005424 72.005424 0 0 1-72.027119 72.005423z" fill="#ffffff" p-id="5866"></path></svg>