<?xml version="1.0" standalone="no"?><!DOCTYPE svg PUBLIC "-//W3C//DTD SVG 1.1//EN" "http://www.w3.org/Graphics/SVG/1.1/DTD/svg11.dtd"><svg t="1547689478967" class="icon" style="" viewBox="0 0 1024 1024" version="1.1" xmlns="http://www.w3.org/2000/svg" p-id="3656" xmlns:xlink="http://www.w3.org/1999/xlink" width="200" height="200"><defs><style type="text/css"></style></defs><path d="M41.21212167 512c0 51.2 41.89090899 93.090909 93.090909 93.090909s93.090909-41.89090899 93.09090899-93.090909-41.89090899-93.090909-93.09090899-93.090909-93.090909 41.89090899-93.090909 93.090909z m372.36363599 0c0 51.2 41.89090899 93.090909 93.090909 93.090909s93.090909-41.89090899 93.090909-93.090909-41.89090899-93.090909-93.090909-93.090909-93.090909 41.89090899-93.090909 93.090909z m372.363636 0c0 51.2 41.89090899 93.090909 93.090909 93.090909s93.090909-41.89090899 93.090909-93.090909-41.89090899-93.090909-93.090909-93.090909-93.090909 41.89090899-93.090909 93.090909z" p-id="3657" fill="#8a8a8a"></path></svg>