<?xml version="1.0" standalone="no"?><!DOCTYPE svg PUBLIC "-//W3C//DTD SVG 1.1//EN" "http://www.w3.org/Graphics/SVG/1.1/DTD/svg11.dtd"><svg t="1547645076692" class="icon" style="" viewBox="0 0 1024 1024" version="1.1" xmlns="http://www.w3.org/2000/svg" p-id="20940" xmlns:xlink="http://www.w3.org/1999/xlink" width="200" height="200"><defs><style type="text/css"></style></defs><path d="M958.976 650.752c0-89.088-53.76-166.4-130.56-200.192 0.512-1.536 0.512-2.56 0.512-4.096 0-78.336-30.208-151.552-85.504-206.848-55.296-55.296-128.512-85.504-206.848-85.504-71.168 0-139.776 26.112-193.536 73.216-51.2 45.056-84.992 106.496-95.744 173.056-42.496 10.24-80.896 31.744-112.64 62.976-45.056 45.056-69.632 104.448-69.632 168.448 0 63.488 24.576 123.392 69.632 168.448 45.056 45.056 104.448 69.632 168.448 69.632h442.88c117.248-3.072 212.992-100.352 212.992-219.136z m-218.624 172.544H302.592c-105.984 0-192-86.016-192-192s86.016-192 192-192 192 86.016 192 192c0 12.8 10.24 23.04 23.04 23.04s23.04-10.24 23.04-23.04c0-63.488-24.576-123.392-69.632-168.448-45.056-45.056-104.448-69.632-168.448-69.632h-7.68c24.576-111.616 124.416-194.048 240.64-194.048 132.608 0 241.152 104.96 246.272 236.544-13.824-2.56-27.648-4.096-41.984-4.096-12.8 0-23.04 10.24-23.04 23.04s10.24 23.04 23.04 23.04c95.232 0 172.544 77.312 172.544 172.544 0.512 95.744-77.312 173.056-172.032 173.056z" fill="#ffffff" p-id="20941"></path></svg>