<?xml version="1.0" standalone="no"?><!DOCTYPE svg PUBLIC "-//W3C//DTD SVG 1.1//EN" "http://www.w3.org/Graphics/SVG/1.1/DTD/svg11.dtd"><svg t="1547696379369" class="icon" style="" viewBox="0 0 1024 1024" version="1.1" xmlns="http://www.w3.org/2000/svg" p-id="6466" xmlns:xlink="http://www.w3.org/1999/xlink" width="200" height="200"><defs><style type="text/css"></style></defs><path d="M695.296 176.499c111.128 0 201.538 87.515 201.538 195.088 0 173.672-251.92 377.102-383.754 464.805-39.994-26.864-110.757-77.226-181.211-141.218C199.041 574.534 128.835 462.64 128.835 371.587c0-107.573 90.413-195.088 201.554-195.088 51.869 0 101.235 17.235 139.003 52.163l43.442 39.995 43.474-40.005C594.052 193.731 643.413 176.499 695.296 176.499M695.296 112.499c-70.746 0-134.872 27.155-182.451 71.173-47.6-44.018-111.706-71.173-182.456-71.173-146.664 0-265.555 116.003-265.555 259.088 0 268.014 448.011 540.914 448.011 540.914s447.989-272.899 447.989-540.914C960.833 228.502 841.971 112.499 695.296 112.499L695.296 112.499z" p-id="6467" fill="#ffffff"></path></svg>