<?xml version="1.0" standalone="no"?><!DOCTYPE svg PUBLIC "-//W3C//DTD SVG 1.1//EN" "http://www.w3.org/Graphics/SVG/1.1/DTD/svg11.dtd"><svg t="1547689573229" class="icon" style="" viewBox="0 0 1024 1024" version="1.1" xmlns="http://www.w3.org/2000/svg" p-id="4319" xmlns:xlink="http://www.w3.org/1999/xlink" width="200" height="200"><defs><style type="text/css"></style></defs><path d="M511.998 354.429c37.405-82.332 82.292-119.755 164.583-119.755 97.254 0 172.063 74.847 172.063 157.178 0 52.393-14.962 104.786-44.886 157.179h-37.405c29.924-52.393 52.367-104.786 52.367-149.694 0-74.847-67.329-127.24-149.62-127.24-59.849 0-97.254 37.423-134.658 89.816-37.406 52.393-22.444 44.908-52.368-7.484-37.405-44.908-82.292-89.816-134.659-89.816-82.288 0-149.617 59.877-149.617 134.725 0 44.908 22.443 97.301 59.848 149.694h-37.405c-29.924-52.393-52.367-104.786-52.367-157.179 0-82.332 74.81-157.178 172.063-157.178 82.288-0.001 127.175 37.423 172.061 119.754zM295.051 564l44.886-89.816 52.364 82.332 59.848-164.663L549.402 564H901.01c7.481 0 14.963 7.484 14.963 14.969v7.485c0 7.485-7.481 14.97-14.963 14.97H556.883s-29.924 0-37.404-22.455L459.63 459.214l-52.367 127.24c-14.962 22.454-29.924-14.97-37.401-22.454-14.962-14.969-22.447-37.424-22.447-37.424l-29.924 59.878c0 7.485-7.477 14.97-7.477 14.97H115.507s-7.481-7.484-7.481-14.97v-7.485c0-7.484 7.481-14.969 7.481-14.969h179.544z m463.821 44.908c-67.329 89.816-157.102 172.146-246.875 261.963-97.253-89.816-187.022-172.146-254.351-261.963h44.886c59.844 74.846 134.654 149.693 209.465 217.055 67.329-67.361 149.621-142.209 209.469-217.055h37.406z" p-id="4320" fill="#d81e06"></path></svg>