<?xml version="1.0" standalone="no"?><!DOCTYPE svg PUBLIC "-//W3C//DTD SVG 1.1//EN" "http://www.w3.org/Graphics/SVG/1.1/DTD/svg11.dtd"><svg t="1547644330823" class="icon" style="" viewBox="0 0 1024 1024" version="1.1" xmlns="http://www.w3.org/2000/svg" p-id="7558" xmlns:xlink="http://www.w3.org/1999/xlink" width="200" height="200"><defs><style type="text/css"></style></defs><path d="M403.2512 94.0288c-130.56 0-236.7488 106.24-236.7488 236.8256 0 45.0048 12.7232 88.832 36.8128 126.72a238.1568 238.1568 0 0 0 82.688 78.976 353.024 353.024 0 0 0-131.6864 83.2512A349.8752 349.8752 0 0 0 51.2 868.8128c0 14.0032 11.3664 25.3696 25.344 25.3696 14.0032 0 25.3696-11.3664 25.3696-25.3696 0-80.512 31.36-156.2112 88.2688-213.1456a299.776 299.776 0 0 1 204.2368-88.1664c3.2256 0.128 6.144 0.1792 8.832 0.1792 130.56 0 236.7488-106.24 236.7488-236.8 0-130.6112-106.1888-236.8512-236.7488-236.8512z m3.5328 422.8864a24.576 24.576 0 0 0-3.584-0.2816c-2.8672 0-5.7856 0.0256-8.6784 0.1024a185.7024 185.7024 0 0 1-177.3056-185.856c0-102.656 83.456-186.112 186.0352-186.112 102.5792 0 186.0352 83.456 186.0352 186.112 0 100.7872-81.8176 184.1408-182.5024 186.0352z" fill="#d81e06" p-id="7559"></path><path d="M546.9184 955.6224a22.2464 22.2464 0 0 1-22.016-24.9344l20.7104-168.448-114.0736-123.8528a22.272 22.272 0 0 1 12.032-36.864l163.6608-31.9488 80.4096-148.2752a22.144 22.144 0 0 1 19.2256-11.8016h0.4096a22.1952 22.1952 0 0 1 19.1488 11.0336c3.456 5.7856 69.376 116.6592 84.9152 145.28a22.272 22.272 0 0 1-25.8048 31.8976 22.1952 22.1952 0 0 1-13.184-10.7008c-9.9328-18.2784-42.1376-73.0112-64.256-110.336l-66.8416 123.2896a22.1184 22.1184 0 0 1-15.2576 11.2128l-134.912 26.368 94.1312 102.144a22.1952 22.1952 0 0 1 5.7088 17.7664l-17.0496 138.496 123.8272-59.0592a22.528 22.528 0 0 1 19.0976 0l123.8016 59.0336-17.024-138.4704a22.1952 22.1952 0 0 1 5.7088-17.7664l94.1312-102.144-26.9824-5.2736a22.0416 22.0416 0 0 1-14.1568-9.3952 22.2208 22.2208 0 0 1 22.656-34.2272l65.9712 12.8768a22.2208 22.2208 0 0 1 12.0576 36.864l-114.0736 123.8528 20.736 168.448a22.2208 22.2208 0 0 1-31.5904 22.784l-150.784-71.936-150.784 71.936a22.2976 22.2976 0 0 1-9.5488 2.1504z" fill="#d81e06" p-id="7560"></path></svg>