<?xml version="1.0" standalone="no"?><!DOCTYPE svg PUBLIC "-//W3C//DTD SVG 1.1//EN" "http://www.w3.org/Graphics/SVG/1.1/DTD/svg11.dtd"><svg t="1547708596495" class="icon" style="" viewBox="0 0 1024 1024" version="1.1" xmlns="http://www.w3.org/2000/svg" p-id="7385" xmlns:xlink="http://www.w3.org/1999/xlink" width="200" height="200"><defs><style type="text/css"></style></defs><path d="M513.792 464.6912L352.6144 611.328a179.2 179.2 0 1 1-43.264-29.8496L475.7504 430.08 136.3968 121.344a25.6 25.6 0 1 1 34.4064-37.888l343.04 312.0128 342.9376-312.0128a25.6 25.6 0 1 1 34.4576 37.888L551.8336 430.08l165.2224 150.272a179.2 179.2 0 1 1-43.8272 29.3376l-159.4368-144.9984zM230.4 870.4a128 128 0 1 0 0-256 128 128 0 0 0 0 256z m563.2 0a128 128 0 1 0 0-256 128 128 0 0 0 0 256z" p-id="7386"></path></svg>