<?xml version="1.0" standalone="no"?><!DOCTYPE svg PUBLIC "-//W3C//DTD SVG 1.1//EN" "http://www.w3.org/Graphics/SVG/1.1/DTD/svg11.dtd"><svg t="1547644556003" class="icon" style="" viewBox="0 0 1024 1024" version="1.1" xmlns="http://www.w3.org/2000/svg" p-id="17665" xmlns:xlink="http://www.w3.org/1999/xlink" width="200" height="200"><defs><style type="text/css"></style></defs><path d="M524.06 56.946c238.792 15.19 425.814 213.731 425.814 454.172 0 251.364-203.748 455.111-455.111 455.111A455.282 455.282 0 0 1 58.055 639.573a28.444 28.444 0 0 1 36.921-34.787c36.75 13.255 75.72 20.11 115.684 20.11 188.302 0 340.992-152.661 340.992-340.992 0-65.906-18.688-128.967-53.362-183.268a28.444 28.444 0 0 1 25.77-43.69z m84.48 226.958c0 219.762-178.147 397.88-397.88 397.88a399.644 399.644 0 0 1-79.503-7.935 398.507 398.507 0 0 0 363.606 235.52c219.932 0 398.222-178.318 398.222-398.222 0-192.171-136.533-353.764-319.346-390.429a396.686 396.686 0 0 1 34.901 163.186z" p-id="17666" fill="#d81e06"></path></svg>