<?xml version="1.0" standalone="no"?><!DOCTYPE svg PUBLIC "-//W3C//DTD SVG 1.1//EN" "http://www.w3.org/Graphics/SVG/1.1/DTD/svg11.dtd"><svg t="1547685943453" class="icon" style="" viewBox="0 0 1024 1024" version="1.1" xmlns="http://www.w3.org/2000/svg" p-id="1159" xmlns:xlink="http://www.w3.org/1999/xlink" width="200" height="200"><defs><style type="text/css"></style></defs><path d="M876.548 733.808c40.414-66.29 62.119-142.49 62.119-221.808C938.667 276.359 747.64 85.333 512 85.333 276.359 85.333 85.333 276.36 85.333 512c0 75.296 19.555 147.81 56.181 211.761 7.808 13.632 25.188 18.354 38.82 10.547 13.632-7.808 18.354-25.188 10.546-38.82-31.729-55.4-48.658-118.177-48.658-183.488 0-204.223 165.555-369.778 369.778-369.778S881.778 307.777 881.778 512c0 68.797-18.79 134.763-53.804 192.194-8.178 13.414-3.933 30.916 9.48 39.094s30.916 3.933 39.094-9.48zM730.72 632.562C754.973 592.783 768 547.048 768 499.469c0-141.385-114.615-256-256-256s-256 114.615-256 256c0 45.165 11.737 88.689 33.716 127.065 7.807 13.632 25.187 18.353 38.82 10.546 13.631-7.808 18.353-25.188 10.545-38.82C322 568.436 312.89 534.65 312.89 499.47c0-109.967 89.145-199.112 199.111-199.112s199.111 89.145 199.111 199.112c0 37.057-10.112 72.56-28.963 103.48-8.178 13.412-3.933 30.915 9.48 39.093 13.413 8.177 30.916 3.933 39.093-9.48z m-275.61 306.105c47.128 0 85.333-31.838 85.333-71.111 0-39.274-38.205-71.112-85.333-71.112s-85.333 31.838-85.333 71.112c0 39.273 38.205 71.11 85.333 71.11z" fill="#d81e06" p-id="1160"></path><path d="M449.095 750.862c-73.508 0-135.476 48.528-135.476 112.263 0 63.735 61.968 112.263 135.476 112.263 73.507 0 135.475-48.528 135.475-112.263 0-63.735-61.968-112.263-135.475-112.263z m0 56.889c44.715 0 78.587 26.525 78.587 55.374 0 28.85-33.872 55.374-78.587 55.374-44.716 0-78.588-26.525-78.588-55.374 0-28.85 33.872-55.374 78.588-55.374z" fill="#d81e06" p-id="1161"></path><path d="M584.617 845.407l9.35-316.971c0.463-15.703-11.891-28.808-27.594-29.271-15.702-0.463-28.807 11.89-29.27 27.593l-9.35 316.972c-0.463 15.703 11.891 28.808 27.594 29.27 15.702 0.464 28.807-11.89 29.27-27.593z m52.752-367.526c-14.57 2.148-27.27 4.84-39.241 8.141-9.36 2.58-31.385 10.005-34.44 10.748-15.266 3.711-24.631 19.095-20.92 34.36 3.712 15.264 19.095 24.63 34.36 20.918 6.016-1.463 29.168-9.266 36.122-11.184 9.75-2.688 20.172-4.897 32.418-6.703 15.542-2.292 26.282-16.748 23.99-32.29-2.291-15.541-16.748-26.282-32.289-23.99z" fill="#d81e06" p-id="1162"></path></svg>