<?xml version="1.0" standalone="no"?><!DOCTYPE svg PUBLIC "-//W3C//DTD SVG 1.1//EN" "http://www.w3.org/Graphics/SVG/1.1/DTD/svg11.dtd"><svg t="1547732647400" class="icon" style="" viewBox="0 0 1024 1024" version="1.1" xmlns="http://www.w3.org/2000/svg" p-id="22328" xmlns:xlink="http://www.w3.org/1999/xlink" width="200" height="200"><defs><style type="text/css"></style></defs><path d="M258.206 421.356c-50.064 0-90.64 40.583-90.64 90.64 0 50.061 40.576 90.648 90.64 90.648s90.64-40.587 90.64-90.648c-0.001-50.059-40.576-90.64-90.64-90.64zM512.002 421.356c-50.066 0-90.642 40.583-90.642 90.64 0 50.061 40.576 90.648 90.642 90.648 50.064 0 90.639-40.587 90.639-90.648 0-50.059-40.575-90.64-90.639-90.64zM765.792 421.356c-50.064 0-90.639 40.583-90.639 90.64 0 50.061 40.576 90.648 90.639 90.648 50.065 0 90.64-40.587 90.64-90.648 0-50.059-40.576-90.64-90.64-90.64z" p-id="22329" fill="#707070"></path></svg>