<?xml version="1.0" standalone="no"?><!DOCTYPE svg PUBLIC "-//W3C//DTD SVG 1.1//EN" "http://www.w3.org/Graphics/SVG/1.1/DTD/svg11.dtd"><svg t="1547722418507" class="icon" style="" viewBox="0 0 1024 1024" version="1.1" xmlns="http://www.w3.org/2000/svg" p-id="5389" xmlns:xlink="http://www.w3.org/1999/xlink" width="200" height="200"><defs><style type="text/css"></style></defs><path d="M920.416 818.288h-80.101v-78.183c0-6.2-5.15-11.252-11.533-11.252h-29.98c-6.338 0-11.481 5.053-11.481 11.252v78.183h-80.11c-6.38 0-11.533 5.021-11.533 11.272v29.248c0 6.235 5.151 11.252 11.532 11.252h80.112v78.202c0 6.183 5.142 11.253 11.482 11.253h29.98c6.38 0 11.532-5.07 11.532-11.253v-78.203h80.1c6.382 0 11.534-5.017 11.534-11.252v-29.248c0-6.25-5.152-11.271-11.534-11.271z m-116.42-151.64c13.713-14.634 12.985-37.632-1.689-51.396-41.372-38.78-89.445-68.356-141.439-87.682 65.478-46.243 108.269-122.482 108.269-208.555 0-140.757-114.51-255.227-255.267-255.227-140.74 0-255.227 114.469-255.227 255.227 0 86.122 42.857 162.402 108.36 208.655C206.608 587.446 92.05 742.156 92.05 923.097c0 20.094 16.289 36.417 36.36 36.417s36.368-16.323 36.368-36.417c0-189.422 151.65-344.114 339.93-349.004 3.052 0.098 6.11 0.197 9.162 0.197s6.103-0.1 9.113-0.197c85.664 2.198 166.913 35.466 229.611 94.243 14.63 13.715 37.687 12.943 51.403-1.689zM521.703 501.373c-2.592-0.05-5.192-0.09-7.833-0.09-2.55 0-5.101 0.04-7.66 0.09-97.097-4.051-174.836-84.252-174.836-182.358 0-100.657 81.857-182.498 182.497-182.498 100.657 0 182.54 81.841 182.54 182.498-0.002 98.015-77.693 178.258-174.708 182.358z m0 0" p-id="5390" fill="#ffffff"></path></svg>