<?xml version="1.0" standalone="no"?><!DOCTYPE svg PUBLIC "-//W3C//DTD SVG 1.1//EN" "http://www.w3.org/Graphics/SVG/1.1/DTD/svg11.dtd"><svg t="1547733209161" class="icon" style="" viewBox="0 0 1024 1024" version="1.1" xmlns="http://www.w3.org/2000/svg" p-id="25958" xmlns:xlink="http://www.w3.org/1999/xlink" width="200" height="200"><defs><style type="text/css"></style></defs><path d="M879.87 550.444l-8.19-5.398 8.536-4.833c8.586-4.861 25.074-34.03 25.104-61.181-1.125-44.188-45.546-75.044-108.056-75.044L608.548 403.988l2.965-8.069c30.346-82.592 24.605-193.399-13.067-252.262-22.103-34.506-47.884-41.75-65.62-41.75-40.813 0-61.505 26.376-61.505 78.396 0 75.078-11.72 108.739-23.724 136.782l-0.203 0.426c-5.87 11.191-25.375 32.917-49.96 51.137-21.955 16.271-55.749 35.666-92.068 35.666L185.571 404.314c-18.884 0-35.769 6.913-48.828 19.99-16.033 16.055-24.865 40.042-24.886 67.565l9.042 325.682c3.725 50.125 28.057 75.541 72.32 75.541 0.297 0.002 47.024 0.204 65.343 0.204 9.377 0 18.123-0.075 23.395-0.202 12.783-0.421 23.746-6.534 34.348-14.382l3.477-2.571c7.609-5.637 14.18-10.506 21.337-10.506 2.57 0 5.364 1.314 14.656 5.874 6.222 3.053 13.965 6.853 22.586 10.516 19.509 8.243 47.866 13.572 72.23 13.572l250.547 0c53.979 0 118.325-13.522 118.325-77.942 0-13.466-2.688-21.536-11.059-33.214l-5.199-7.252 8.678-2.079c17.744-4.252 59.018-18.61 59.018-60.002 0-13.307-6.512-32.232-12.443-36.162l-11.273-7.472 13.104-3.344c13.839-3.532 45.28-30.298 45.235-61.152C905.524 581.053 896.653 561.506 879.87 550.444zM317.36 851.401l-2.564 1.791c-6.295 4.396-11.492 8.189-14.03 10.059-9.113 6.722-15.574 8.345-19.201 8.77l-0.508 0.038c-4.488 0.143-12.804 0.214-24.717 0.214-16.067 0-56.471-0.129-66.004-0.205l-0.688-0.006c-22.12 0-41.758-20.019-46.673-47.6l-0.068-0.508-9.083-339.084 0-0.273c0-14.107 5.5-28.741 15.09-40.149 10.464-12.446 24.25-19.301 38.821-19.301l6 0 0 0.195 111.65 0.335c0.939 0 1.969-0.077 3.059-0.157 0.9-0.067 1.798-0.132 2.696-0.166l6.221-0.229L317.361 851.401zM883.604 605.304c-0.763 21.003-30.733 50.868-51.854 52.278l0.287 20.502c11.403 5.819 17.186 17.853 17.201 35.837 0 15.286-8.961 27.691-25.914 35.88-11.498 5.554-26.786 9.001-42.672 9.698l-0.344 18.75c17.279 7.17 17.252 28.72 17.242 36.193 0 18.376-8.163 33.428-23.606 43.519-16.353 10.685-41.087 16.103-73.514 16.103L440.97 874.064c-14.172 0-40.23-7.827-54.753-14.853-10.743-5.192-26.202-13.723-36.431-19.368-2.905-1.604-5.34-2.946-7.043-3.869l-3.144-1.701L339.599 421.27l4.398-1.219c63.547-17.607 115.959-72.699 128.87-97.134 13.683-31.885 21.603-66.166 21.603-146.516 0-34.866 11.005-50.415 35.687-50.415 15.617 0 38.977 15.9 51.007 34.721 16.793 26.219 26.954 66.824 27.876 111.399 0.99 47.871-8.806 95.291-27.59 133.613l-4.915 20.007 222.458-0.048 0.164 0.009c21.484 1.174 41.527 6.213 56.437 14.189 18.147 9.708 27.739 23.136 27.739 38.834l-0.002 0.184-0.277 9.039-0.025-0.001c0.113 4.368-1.48 12.328-2.222 15.289-2.819 11.26-7.528 19.692-13.997 25.056-7.057 5.861-13.438 8.55-17.785 9.782l-0.168 19.962c5.007 1.061 12.443 3.107 17.551 6.618C878.002 572.592 884.272 587.415 883.604 605.304z" p-id="25959" fill="#8a8a8a"></path></svg>