<?xml version="1.0" standalone="no"?><!DOCTYPE svg PUBLIC "-//W3C//DTD SVG 1.1//EN" "http://www.w3.org/Graphics/SVG/1.1/DTD/svg11.dtd"><svg t="1547733176346" class="icon" style="" viewBox="0 0 1024 1024" version="1.1" xmlns="http://www.w3.org/2000/svg" p-id="23205" xmlns:xlink="http://www.w3.org/1999/xlink" width="200" height="200"><defs><style type="text/css"></style></defs><path d="M1002.015819 143.475706c-26.612429-53.224859-76.655367-82.440678-140.872316-82.440678H162.856497c-64.216949 0-114.259887 29.215819-140.872316 82.440678C3.471186 180.501695 2.892655 216.949153 2.892655 220.99887v426.666667c0 4.049718 0.578531 40.497175 19.091526 77.812429 26.612429 53.224859 76.655367 82.440678 140.872316 82.440678h24.298305v70.291525c0 8.099435 1.157062 38.183051 23.430509 61.324294 10.413559 10.702825 28.926554 23.430508 58.431638 23.430509 31.819209 0 59.877966-22.562712 69.134463-30.951413l150.707345-124.094915h372.284746c64.216949 0 114.259887-29.215819 140.872316-82.440678 18.512994-37.315254 19.091525-73.762712 19.091526-77.812429V220.99887c0-4.049718-0.578531-40.497175-19.091526-77.523164z m-68.266666 504.189831c0 0.289266-0.578531 19.959322-9.835029 38.761582-11.570621 23.141243-31.529944 34.133333-62.770621 34.133333H473.238418c-10.124294 0-19.959322 3.471186-27.769491 9.835028l-163.724294 134.79774c-0.578531 0.578531-1.157062 1.157062-2.024859 1.735594-1.157062 1.157062-3.471186 2.892655-5.496045 4.338983v-87.647458c0-3.760452-0.578531-7.520904-1.446328-10.99209v-0.578531c-8.099435-47.728814-49.175141-51.489266-61.613559-51.489266H162.856497c-39.918644 0-54.381921-18.223729-61.902825-32.108475-10.124294-18.80226-10.99209-39.340113-10.99209-40.78644V220.99887c0-0.289266 0.578531-19.959322 9.835028-38.761582 11.570621-23.141243 31.529944-34.133333 62.770622-34.133333h698.287005c31.240678 0 51.2 10.702825 62.770622 34.133333 9.256497 18.80226 9.835028 38.472316 9.835028 38.761582v426.666667z" fill="#8a8a8a" p-id="23206"></path><path d="M291.00113 434.766102m-69.712994 0a69.712994 69.712994 0 1 0 139.425988 0 69.712994 69.712994 0 1 0-139.425988 0Z" fill="#8a8a8a" p-id="23207"></path><path d="M512 434.766102m-69.712994 0a69.712994 69.712994 0 1 0 139.425988 0 69.712994 69.712994 0 1 0-139.425988 0Z" fill="#8a8a8a" p-id="23208"></path><path d="M732.99887 434.766102m-69.712994 0a69.712994 69.712994 0 1 0 139.425988 0 69.712994 69.712994 0 1 0-139.425988 0Z" fill="#8a8a8a" p-id="23209"></path></svg>