<?xml version="1.0" standalone="no"?><!DOCTYPE svg PUBLIC "-//W3C//DTD SVG 1.1//EN" "http://www.w3.org/Graphics/SVG/1.1/DTD/svg11.dtd"><svg t="1547791871743" class="icon" style="" viewBox="0 0 1024 1024" version="1.1" xmlns="http://www.w3.org/2000/svg" p-id="55611" xmlns:xlink="http://www.w3.org/1999/xlink" width="200" height="200"><defs><style type="text/css"></style></defs><path d="M200.61477 419.341661c-7.367643-3.78615-12.893375-10.335165-15.349256-18.316778-2.455881-7.879285-1.739582-16.474868 2.148896-23.740182C251.778955 254.695313 377.131208 178.563006 514.660538 178.563006c17.293495 0 31.312481 13.916658 31.312481 31.210153 0 8.288598-3.274508 16.270211-9.209553 22.102928-5.832717 5.832717-13.81433 9.107225-22.102928 9.107225-114.096133 0-218.266414 63.341261-271.784151 165.260317-8.083941 15.246927-27.01469 21.079644-42.261617 13.098032z m585.829919-13.20036c-18.930748-36.019586-44.717498-68.048366-75.927651-94.1421-6.344359-5.321075-10.335165-12.893375-11.051464-21.181973-0.716299-8.288598 1.841911-16.474868 7.265314-22.716898 11.153792-13.20036 30.800839-14.939942 44.103528-3.78615 37.554512 31.312481 68.560008 69.68562 91.174578 112.970521 3.888478 7.367643 4.604777 15.860897 2.148895 23.740182-2.455881 7.879285-7.981613 14.4283-15.349255 18.316778-15.451584 7.981613-34.280004 2.046567-42.363945-13.20036zM399.336464 425.174378c8.288598 0 16.270211 3.274508 22.102928 9.107225 5.832717 5.832717 9.209553 13.81433 9.209554 22.102928v28.651943c0 8.288598-3.376836 16.167882-9.209554 22.102928-5.832717 5.832717-13.81433 9.107225-22.102928 9.107225-8.288598 0-16.270211-3.274508-22.102927-9.107225-5.832717-5.832717-9.209553-13.81433-9.209554-22.102928v-28.651943c0-8.288598 3.376836-16.270211 9.209554-22.102928 5.832717-5.832717 13.81433-9.107225 22.102927-9.107225z m229.931848 0c8.288598 0 16.270211 3.274508 22.102928 9.107225 5.832717 5.832717 9.209553 13.81433 9.209553 22.102928v28.651943c0 8.288598-3.376836 16.167882-9.209553 22.102928-5.832717 5.832717-13.81433 9.107225-22.102928 9.107225-8.288598 0-16.270211-3.274508-22.102928-9.107225-5.832717-5.832717-9.209553-13.81433-9.209553-22.102928v-28.651943c0-8.288598 3.376836-16.270211 9.209553-22.102928 5.832717-5.832717 13.81433-9.107225 22.102928-9.107225zM513.944239 647.124613c-42.466274 0-72.039173-29.265914-82.783651-46.45708-4.40012-7.060658-5.832717-15.451584-3.888478-23.535525 1.841911-8.083941 6.958329-15.04227 14.018986-19.340062 14.530629-9.004897 33.666034-4.707105 42.875587 9.721195 0.818627 1.22794 12.074748 17.395823 29.879884 17.395823 18.112122 0 30.391526-17.293495 30.493855-17.395823 9.41421-14.530629 28.651944-18.726092 43.2849-9.41421 6.958329 4.40012 11.870091 11.460777 13.712002 19.544718 1.739582 8.083941 0.306985 16.577196-4.195463 23.535526-11.153792 16.986509-41.136005 45.945438-83.397622 45.945438z m42.159289-370.735685c35.200959 5.62806 68.560008-19.749375 74.392725-56.382932 5.832717-36.633557-18.009793-70.913561-53.210753-76.439293-8.18627-1.22794-15.553912-5.730389-20.363346-12.381732-4.911762-6.651344-6.856001-15.04227-5.62806-23.228541 2.762866-16.986509 18.82842-28.651944 35.81493-25.889077 69.276307 10.949136 116.552014 77.257919 105.295893 147.762166C682.17208 293.682422 627.52873 339.423204 565.824723 339.423204c-6.549016 0-13.098031-0.511642-19.544719-1.534926-8.18627-1.22794-15.553912-5.730389-20.363346-12.381733-4.911762-6.651344-6.856001-15.04227-5.62806-23.22854 2.762866-17.088838 18.726092-28.651944 35.81493-25.889077z m406.959928 305.347856c0 63.750575-46.866394 116.75667-108.058759 126.989508-58.327171 137.938643-190.944739 226.759668-340.344159 226.759668-147.55751 0-282.426302-90.560608-340.241831-226.65734-61.601679-9.823524-108.877386-63.034276-108.877386-127.091836 0-71.118217 58.122514-128.933746 129.547717-128.933746 17.293495 0 31.312481 13.916658 31.312481 31.107824 0 8.288598-3.376836 16.270211-9.209553 22.102928-5.832717 5.832717-13.81433 9.107225-22.102928 9.107225-36.940542 0-66.922754 29.879884-66.922754 66.615769 0 36.735885 29.982212 66.615769 66.922754 66.615769 12.893375 0 24.047167 7.776956 28.8566 18.930749 1.432597 2.046567 2.660538 4.297792 3.581493 6.651344 45.433796 119.212551 160.757869 199.233337 287.133407 199.233336 126.477865 0 238.527431-76.643949 285.598481-195.24253 0.818627-1.944239 1.739582-3.888478 2.865194-5.525732 3.376836-14.121315 15.963226-24.047167 30.391526-24.047167 36.940542 0 66.922754-29.879884 66.922754-66.615769 0-36.735885-29.982212-66.615769-66.922754-66.615769-8.288598 0-16.270211-3.274508-22.102928-9.107225-5.832717-5.832717-9.209553-13.81433-9.209553-22.102928 0-8.288598 3.376836-16.167882 9.209553-22.102928 5.832717-5.832717 13.81433-9.107225 22.102928-9.107224 71.425202 0.102328 129.547717 57.917857 129.547717 129.036074z m0 0" fill="#bfbfbf" p-id="55612"></path></svg>