<?xml version="1.0" standalone="no"?><!DOCTYPE svg PUBLIC "-//W3C//DTD SVG 1.1//EN" "http://www.w3.org/Graphics/SVG/1.1/DTD/svg11.dtd"><svg t="1547791955040" class="icon" style="" viewBox="0 0 1024 1024" version="1.1" xmlns="http://www.w3.org/2000/svg" p-id="57785" xmlns:xlink="http://www.w3.org/1999/xlink" width="200" height="200"><defs><style type="text/css"></style></defs><path d="M52.642 832.644c-19.813-19.813-30.556-46.182-30.193-74.229l1.844-120.549c0.33-21.766 18.164-39.096 39.931-38.875 24.585 0.306 47.774-8.984 65.355-26.174 17.551-17.159 27.345-40.128 27.622-64.681 0.591-49.253-41.771-92.621-90.857-93.15-10.492-0.11-21.263-5.467-27.82-11.913-7.308-7.538-11.387-17.636-11.187-28.158l1.809-120.352c0.252-27.325 11.245-53.161 30.948-72.472 19.757-19.315 45.821-29.751 73.476-29.44l765.628 7.784c55.393 0.753 102.719 49.308 102.11 104.393l-1.817 120.633c-0.333 21.767-18.191 39.122-39.962 38.845-24.58-0.251-47.826 9.044-65.406 26.233-17.577 17.186-27.374 40.149-27.707 64.709-0.531 49.142 41.8 92.589 90.997 93.176 10.492 0.112 20.118 5.498 27.821 11.914 7.311 7.533 11.356 17.668 11.165 28.129l-1.898 120.381c-0.198 27.211-11.135 52.991-30.782 72.306-19.701 19.361-45.793 29.886-73.419 29.604l-765.825-7.869c-27.214-0.36-52.689-11.101-71.833-30.245z m50.065-158.78l-1.342 85.667c-0.111 12.781 10.968 24.304 24.054 24.443l765.631 7.899a24.416 24.416 0 0 0 17.36-6.979c4.577-4.518 7.11-10.517 7.171-16.938l1.366-85.69c-29.774-7.397-57.121-22.803-79.335-45.017-32.841-32.841-50.618-76.456-50.09-122.919 0.502-45.654 18.781-88.324 51.427-120.245 23.109-22.547 51.378-37.812 82.128-44.615l1.283-85.676c0.114-12.667-11.076-24.249-24.109-24.439l-765.577-7.785c-6.558-0.086-12.727 2.397-17.355 6.916-4.603 4.552-7.171 10.577-7.286 17.053l-1.313 85.587c29.777 7.395 57.096 22.768 79.279 44.951 32.847 32.846 50.65 76.546 50.062 123.009-0.501 45.593-18.726 88.319-51.373 120.188-23.018 22.517-51.286 37.781-81.981 44.59z m209.62-233.346a39.33 39.33 0 0 1-11.551-27.902c-0.004-21.823 17.632-39.459 39.458-39.458l311.618-0.027c21.821-0.004 39.487 17.662 39.484 39.484-0.001 21.768-17.663 39.43-39.46 39.46l-311.616 0.024a39.49 39.49 0 0 1-27.933-11.581z m0.024 166.734a39.402 39.402 0 0 1-11.552-27.902c0.005-21.824 17.642-39.459 39.461-39.459l311.621-0.031c21.816 0.002 39.453 17.638 39.459 39.459 0.023 21.793-17.643 39.46-39.462 39.46l-311.621 0.031c-10.912-0.033-20.786-4.438-27.906-11.558z m0 0" fill="#bfbfbf" p-id="57786"></path></svg>