<?xml version="1.0" standalone="no"?><!DOCTYPE svg PUBLIC "-//W3C//DTD SVG 1.1//EN" "http://www.w3.org/Graphics/SVG/1.1/DTD/svg11.dtd"><svg t="1547792155231" class="icon" style="" viewBox="0 0 1024 1024" version="1.1" xmlns="http://www.w3.org/2000/svg" p-id="62126" xmlns:xlink="http://www.w3.org/1999/xlink" width="200" height="200"><defs><style type="text/css"></style></defs><path d="M512 211.2c166.4 0 302.4 136 302.4 302.4s-136 302.4-302.4 302.4-302.4-136-302.4-302.4 136-302.4 302.4-302.4m0-51.2c-195.2 0-352 158.4-352 352s158.4 352 352 352 352-158.4 352-352-156.8-352-352-352z" fill="#bfbfbf" p-id="62127"></path><path d="M500.8 412.8c9.6 6.4 20.8 9.6 33.6 6.4 12.8-1.6 22.4-8 28.8-16 8-9.6 9.6-19.2 8-30.4-1.6-11.2-8-19.2-17.6-27.2s-20.8-9.6-33.6-6.4c-12.8 1.6-22.4 8-30.4 16-8 9.6-11.2 19.2-9.6 30.4 4.8 12.8 9.6 20.8 20.8 27.2z m94.4 235.2c-4.8 1.6-11.2 3.2-14.4 4.8-9.6 1.6-16 1.6-20.8-1.6s-6.4-8-8-16v-16c0-6.4 0-12.8 1.6-17.6l9.6-67.2c1.6-6.4 1.6-12.8 1.6-19.2 0-6.4 0-12.8-1.6-14.4-1.6-12.8-8-24-19.2-30.4s-25.6-9.6-43.2-6.4c-9.6 1.6-20.8 4.8-30.4 9.6-11.2 4.8-22.4 11.2-33.6 17.6l-1.6 20.8c3.2-1.6 8-3.2 12.8-6.4l14.4-4.8c9.6-1.6 16-1.6 20.8 1.6 3.2 3.2 6.4 8 8 16 0 4.8 1.6 9.6 0 16 0 6.4-1.6 11.2-1.6 17.6l-9.6 67.2c0 6.4-1.6 12.8-1.6 19.2 0 4.8 0 11.2 1.6 16 1.6 12.8 8 24 19.2 30.4s25.6 9.6 44.8 6.4c11.2-1.6 22.4-4.8 30.4-9.6s19.2-11.2 33.6-19.2l1.6-20.8c-4.8 1.6-9.6 3.2-14.4 6.4z" fill="#bfbfbf" p-id="62128"></path></svg>