<?xml version="1.0" standalone="no"?><!DOCTYPE svg PUBLIC "-//W3C//DTD SVG 1.1//EN" "http://www.w3.org/Graphics/SVG/1.1/DTD/svg11.dtd"><svg t="1547791914796" class="icon" style="" viewBox="0 0 1024 1024" version="1.1" xmlns="http://www.w3.org/2000/svg" p-id="56302" xmlns:xlink="http://www.w3.org/1999/xlink" width="200" height="200"><defs><style type="text/css"></style></defs><path d="M562.17 959H459.83a13.49 13.49 0 0 1-13.5-13.5v-282a13.49 13.49 0 0 1 13.5-13.5h102.34a13.49 13.49 0 0 1 13.5 13.5v282a13.49 13.49 0 0 1-13.5 13.5z m-88.84-27h75.34V677h-75.34zM372.5 537a13.49 13.49 0 0 1-13.5-13.5v-208a13.5 13.5 0 0 1 27 0v208a13.49 13.49 0 0 1-13.5 13.5zM638.5 537a13.49 13.49 0 0 1-13.5-13.5v-208a13.5 13.5 0 0 1 27 0v208a13.49 13.49 0 0 1-13.5 13.5zM510.5 559a13.49 13.49 0 0 1-13.5-13.5v-284a13.5 13.5 0 0 1 27 0v284a13.49 13.49 0 0 1-13.5 13.5z" p-id="56303" fill="#bfbfbf"></path><path d="M740 675.5H282a13.49 13.49 0 0 1-13.5-13.5V381.71c0-85.6 24.76-166.22 69.72-227 22.15-29.95 48-53.53 76.94-70.06C445.46 67.29 477.7 58.5 511 58.5A188.65 188.65 0 0 1 587.71 75a13.5 13.5 0 0 1 5.64 20 92.53 92.53 0 0 0 116.5 135.78 13.5 13.5 0 0 1 18.56 7.44c16.65 44.78 25.09 93.1 25.09 143.49V662a13.49 13.49 0 0 1-13.5 13.5z m-444.5-27h431V381.71c0-42.26-6.32-82.87-18.8-120.94A119.56 119.56 0 0 1 562.57 94.1 159.88 159.88 0 0 0 511 85.5c-118.83 0-215.5 132.88-215.5 296.21z" p-id="56304" fill="#bfbfbf"></path></svg>