<?xml version="1.0" standalone="no"?><!DOCTYPE svg PUBLIC "-//W3C//DTD SVG 1.1//EN" "http://www.w3.org/Graphics/SVG/1.1/DTD/svg11.dtd"><svg t="1547792131428" class="icon" style="" viewBox="0 0 1024 1024" version="1.1" xmlns="http://www.w3.org/2000/svg" p-id="61331" xmlns:xlink="http://www.w3.org/1999/xlink" width="200" height="200"><defs><style type="text/css"></style></defs><path d="M514.56 825.719467H278.203733c-34.048 0-57.838933-23.7568-57.838933-57.8048V297.284267c0-34.1504 23.722667-57.838933 57.770667-57.838934h287.488c11.246933 0 20.667733 6.382933 24.746666 16.674134 3.498667 8.823467 0.5632 17.629867-7.543466 22.613333-6.4512 3.976533-13.585067 4.949333-21.026134 4.949333-91.306667-0.034133-182.613333-0.017067-273.92-0.017066-2.440533 0-4.864-0.017067-7.304533 0.017066-8.96 0.085333-11.963733 2.9696-11.9808 11.861334-0.0512 22.784-0.0512 45.568-0.0512 68.352l0.017067 399.6672c0 1.911467-0.034133 3.84 0.256 5.717333 0.733867 4.7104 3.464533 7.492267 8.3456 7.7824 2.781867 0.1536 5.563733 0.1024 8.3456 0.1024h462.267733c11.912533 0 13.994667-2.030933 13.994667-13.909333l-0.034134-203.485867c0-13.175467 11.52-25.088 24.285867-25.070933 13.960533 0.017067 23.842133 9.949867 23.842133 24.149333 0.017067 70.0928 0.0512 140.168533-0.017066 210.261333-0.034133 27.511467-16.776533 48.981333-42.9056 54.971734a71.406933 71.406933 0 0 1-15.496534 1.5872c-78.967467 0.085333-157.917867 0.0512-236.885333 0.0512z" p-id="61332" fill="#bfbfbf"></path><path d="M775.7312 384.904533c-9.079467 0.8192-18.176 1.348267-27.221333 2.474667-67.089067 8.3456-126.856533 33.109333-176.520534 79.837867-43.8272 41.250133-72.772267 91.716267-90.9312 148.753066-1.979733 6.229333-4.437333 12.526933-7.918933 18.005334-5.512533 8.686933-17.92 12.066133-26.231467 8.174933-10.1888-4.778667-15.394133-14.8992-12.714666-25.770667 7.918933-32.170667 21.384533-62.0544 37.802666-90.658133 32.733867-57.070933 76.219733-103.765333 133.4272-136.994133 48.059733-27.921067 100.164267-42.666667 155.392-47.018667l16.213334-1.262933c-2.474667-2.730667-4.181333-4.778667-6.0416-6.656-23.944533-24.0128-47.854933-48.042667-71.8848-71.953067-5.205333-5.188267-8.209067-11.144533-8.072534-18.5344 0.1536-8.379733 2.952533-15.530667 10.871467-19.3536 8.174933-3.9424 16.554667-3.771733 24.3712 1.211733 2.747733 1.757867 5.085867 4.1984 7.424 6.536534 37.751467 37.751467 75.400533 75.5712 113.237333 113.237333 6.161067 6.144 10.1376 12.782933 8.772267 21.7088a8.533333 8.533333 0 0 1-1.928533 4.573867c-9.949867 10.103467-20.309333 19.8144-30.0544 30.1056-32.955733 34.8672-65.6896 69.956267-98.542934 104.925866-9.540267 10.154667-20.155733 10.581333-30.7712 1.314134-9.028267-7.8848-10.427733-23.2448-2.2016-32.546134 9.437867-10.666667 19.524267-20.753067 29.354667-31.0784l51.438933-53.998933c1.0752-1.1264 2.065067-2.321067 3.089067-3.4816a220.654933 220.654933 0 0 0-0.3584-1.553067z" p-id="61333" fill="#bfbfbf"></path></svg>