<?xml version="1.0" standalone="no"?><!DOCTYPE svg PUBLIC "-//W3C//DTD SVG 1.1//EN" "http://www.w3.org/Graphics/SVG/1.1/DTD/svg11.dtd"><svg t="1547791614473" class="icon" style="" viewBox="0 0 1024 1024" version="1.1" xmlns="http://www.w3.org/2000/svg" p-id="45683" xmlns:xlink="http://www.w3.org/1999/xlink" width="200" height="200"><defs><style type="text/css"></style></defs><path d="M515.923178 0C278.885204 0 86.700064 184.064235 86.700064 411.146151c0 137.217301 70.682227 263.026318 186.527961 339.148974l4.089353 2.304776c1.517251 0.736951 4.660128 2.384252 8.800057 4.710704a207.942877 207.942877 0 0 1 20.432315 12.831609c13.40961 9.695957 20.69964 18.423763 20.69964 19.110139v131.812997h-0.15895c0 54.498215 46.109984 98.606872 102.956325 98.606872h171.695026c56.896917 0 103.014125-44.108657 103.014125-98.606872v-16.053962l-0.1156-37.541128v-17.737388c-0.050575-27.58507-0.10115-48.617061-0.10115-60.480519 0-0.758626 7.282805-9.414182 20.692415-19.110139a232.074395 232.074395 0 0 1 20.38174-12.788259 142.88893 142.88893 0 0 1 8.800057-4.638454l4.089353-2.355351c115.89631-76.151556 186.629112-201.953348 186.629111-339.228449C945.139067 184.064235 752.953926 0 515.923178 0z m85.818613 953.982474H430.046765c-18.965639 0-34.326-14.775136-34.326-32.909899h0.21675v-32.974925H636.017216c0.050575 4.739603 0.050575 8.807281 0.050575 17.079913v15.981712c-0.007225 18.048063-15.353136 32.823199-34.326 32.823199zM720.260778 695.702985a277.656953 277.656953 0 0 0-36.262302 21.805066c-29.550272 21.263191-48.104085 43.559557-48.104085 71.758752v33.112199H395.937515v-33.112199c0-28.191971-18.597164-50.430537-48.19801-71.758752a273.025725 273.025725 0 0 0-36.262302-21.855641c-96.981246-64.020772-156.089014-169.440824-156.089014-284.499034 0-190.718465 161.435518-345.391378 360.534989-345.391378 199.099471 0 360.477189 154.672913 360.477189 345.391378 0 115.072659-59.107768 220.492711-156.139589 284.549609z" fill="#bfbfbf" p-id="45684"></path></svg>