<?xml version="1.0" standalone="no"?><!DOCTYPE svg PUBLIC "-//W3C//DTD SVG 1.1//EN" "http://www.w3.org/Graphics/SVG/1.1/DTD/svg11.dtd"><svg t="1547791641393" class="icon" style="" viewBox="0 0 1024 1024" version="1.1" xmlns="http://www.w3.org/2000/svg" p-id="46521" xmlns:xlink="http://www.w3.org/1999/xlink" width="200" height="200"><defs><style type="text/css"></style></defs><path d="M512 135.904561A376.185263 376.185263 0 1 1 135.994386 512 376.544561 376.544561 0 0 1 512 135.904561m0-71.859649A448.044912 448.044912 0 1 0 960.134737 512 447.865263 447.865263 0 0 0 512 64.044912z" fill="#bfbfbf" p-id="46522"></path><path d="M642.964211 679.073684a35.929825 35.929825 0 0 1-25.420351-10.509473L486.669474 537.689825A35.929825 35.929825 0 0 1 476.070175 512V314.385965a35.929825 35.929825 0 0 1 71.85965 0v182.972631l120.364912 120.364913a35.929825 35.929825 0 0 1-25.420351 61.350175z" fill="#bfbfbf" p-id="46523"></path></svg>