<?xml version="1.0" standalone="no"?><!DOCTYPE svg PUBLIC "-//W3C//DTD SVG 1.1//EN" "http://www.w3.org/Graphics/SVG/1.1/DTD/svg11.dtd"><svg t="1547797105206" class="icon" style="" viewBox="0 0 1024 1024" version="1.1" xmlns="http://www.w3.org/2000/svg" p-id="69411" xmlns:xlink="http://www.w3.org/1999/xlink" width="200" height="200"><defs><style type="text/css"></style></defs><path d="M147.2212905883789 426.17016983032227a21.451663970947266 21.451663970947266 0 0 0 21.45938873291016-21.45938873291016V168.68067932128906h236.03010177612305a21.45938873291016 21.45938873291016 0 1 0 0-42.91877746582032H147.2212905883789A21.451663970947266 21.451663970947266 0 0 0 125.76190185546875 147.2212905883789v257.4894905090332a21.451663970947266 21.451663970947266 0 0 0 21.45938873291016 21.45938873291016zM404.7107810974121 855.3193206787109H168.68067932128906V619.2892189025879a21.45938873291016 21.45938873291016 0 1 0-42.91877746582032 0v257.4894905090332A21.451663970947266 21.451663970947266 0 0 0 147.2212905883789 898.2380981445312h257.4894905090332a21.45938873291016 21.45938873291016 0 0 0 0-42.91877746582032zM876.7787094116211 125.76190185546875H619.2892189025879a21.45938873291016 21.45938873291016 0 1 0 0 42.91877746582032h236.03010177612305v236.03010177612305a21.45938873291016 21.45938873291016 0 1 0 42.91877746582032 0V147.2212905883789A21.44393920898438 21.44393920898438 0 0 0 876.7787094116211 125.76190185546875zM876.7787094116211 597.8298301696777a21.44393920898438 21.44393920898438 0 0 0-21.45938873291016 21.45938873291016v236.03010177612305H619.2892189025879a21.45938873291016 21.45938873291016 0 1 0 0 42.91877746582032h257.4894905090332a21.44393920898438 21.44393920898438 0 0 0 21.45938873291016-21.45938873291016V619.2892189025879a21.44393920898438 21.44393920898438 0 0 0-21.45938873291016-21.45938873291016zM876.7787094116211 490.54061126708984H147.2212905883789a21.45938873291016 21.45938873291016 0 0 0 0 42.91877746582032h729.5574188232422a21.45938873291016 21.45938873291016 0 0 0 0-42.91877746582032z" p-id="69412" fill="#bfbfbf"></path></svg>