<?xml version="1.0" standalone="no"?><!DOCTYPE svg PUBLIC "-//W3C//DTD SVG 1.1//EN" "http://www.w3.org/Graphics/SVG/1.1/DTD/svg11.dtd"><svg t="1547791549259" class="icon" style="" viewBox="0 0 1121 1024" version="1.1" xmlns="http://www.w3.org/2000/svg" p-id="43463" xmlns:xlink="http://www.w3.org/1999/xlink" width="218.9453125" height="200"><defs><style type="text/css"></style></defs><path d="M996.230508 451.254237l-121.491525 107.60678c-13.884746 10.413559-31.240678 13.884746-48.59661 6.942373v284.637288c0 38.183051-31.240678 69.423729-69.423729 69.423729H361.00339c-17.355932 0-34.711864-6.942373-48.59661-20.827119-13.884746-13.884746-20.827119-31.240678-20.827119-48.59661v-284.637288c-17.355932 6.942373-34.711864 3.471186-48.59661-6.942373L121.491525 451.254237c-17.355932-20.827119-20.827119-48.59661-3.471186-69.423729L347.118644 114.549153c3.471186-6.942373 10.413559-10.413559 13.884746-10.41356h48.59661c6.942373 79.837288 69.423729 138.847458 149.261017 138.847458s142.318644-62.481356 149.261017-138.847458h48.59661c3.471186 0 6.942373 6.942373 10.413559 13.884746l229.098305 267.281356c20.827119 17.355932 17.355932 48.59661 0 65.952542z m-246.454237-291.579661c-48.59661 69.423729-100.664407 114.549153-183.972881 114.549153h-24.298305c-86.779661 0-131.905085-55.538983-173.559322-128.433898l-215.21356 249.925423c-6.942373 10.413559-6.942373 20.827119 3.471187 27.769492l100.664407 93.722034c10.413559 6.942373 24.298305 6.942373 31.240678 0v-41.654238c3.471186-13.884746 13.884746-24.298305 24.298305-24.298305 10.413559 0 17.355932 6.942373 20.827118 13.884746l3.471187 10.413559V833.084746c0 27.769492 20.827119 48.59661 45.125423 48.59661h350.589831c24.298305 0 45.125424-20.827119 45.125424-48.59661V468.610169c3.471186-10.413559 10.413559-17.355932 20.827118-17.355932 13.884746 0 24.298305 10.413559 24.298305 24.298305V520.677966c6.942373 6.942373 20.827119 6.942373 31.240678 0l104.135594-93.722034c10.413559-10.413559 6.942373-17.355932 0-27.769491l-208.271187-239.511865z m0 0" p-id="43464" fill="#bfbfbf"></path></svg>