<?xml version="1.0" standalone="no"?><!DOCTYPE svg PUBLIC "-//W3C//DTD SVG 1.1//EN" "http://www.w3.org/Graphics/SVG/1.1/DTD/svg11.dtd"><svg t="1547791363826" class="icon" style="" viewBox="0 0 1024 1024" version="1.1" xmlns="http://www.w3.org/2000/svg" p-id="38134" xmlns:xlink="http://www.w3.org/1999/xlink" width="200" height="200"><defs><style type="text/css"></style></defs><path d="M479.232 350.208c-14.336 0-26.624-12.288-26.624-26.624 0-53.248 34.816-108.544 92.16-108.544 20.48 0 38.912-4.096 38.912-55.296 0-14.336 12.288-26.624 26.624-26.624s26.624 12.288 26.624 26.624c0 96.256-57.344 108.544-92.16 108.544-28.672 0-38.912 36.864-38.912 55.296 0 14.336-12.288 26.624-26.624 26.624zM434.176 620.544h-163.84c-14.336 0-26.624-12.288-26.624-26.624s12.288-26.624 26.624-26.624h163.84c14.336 0 26.624 12.288 26.624 26.624s-12.288 26.624-26.624 26.624z" p-id="38135" fill="#8a8a8a"></path><path d="M352.256 704.512c-14.336 0-26.624-12.288-26.624-26.624v-163.84c0-14.336 12.288-26.624 26.624-26.624s26.624 12.288 26.624 26.624v163.84c0 14.336-12.288 26.624-26.624 26.624z" p-id="38136" fill="#8a8a8a"></path><path d="M745.472 571.392c-6.144 0-10.24-2.048-14.336-4.096l-49.152-32.768c-12.288-8.192-16.384-24.576-8.192-36.864 8.192-12.288 24.576-16.384 36.864-8.192l49.152 32.768c12.288 8.192 16.384 24.576 8.192 36.864-4.096 8.192-12.288 12.288-22.528 12.288zM745.472 704.512c-6.144 0-10.24-2.048-14.336-4.096l-49.152-32.768c-12.288-8.192-16.384-24.576-8.192-36.864 8.192-12.288 24.576-16.384 36.864-8.192l49.152 32.768c12.288 8.192 16.384 24.576 8.192 36.864-4.096 8.192-12.288 12.288-22.528 12.288z" p-id="38137" fill="#8a8a8a"></path><path d="M700.416 892.928c-59.392 0-114.688-16.384-163.84-49.152h-49.152c-49.152 32.768-104.448 49.152-163.84 49.152-163.84 0-299.008-133.12-299.008-299.008 0-159.744 124.928-290.816 284.672-299.008H716.8c159.744 8.192 284.672 137.216 284.672 299.008-2.048 165.888-135.168 299.008-301.056 299.008z m-221.184-104.448h67.584c6.144 0 10.24 2.048 16.384 4.096 40.96 28.672 90.112 45.056 139.264 45.056 135.168 0 243.712-108.544 243.712-243.712 0-133.12-104.448-239.616-237.568-243.712H315.392C182.272 354.304 77.824 460.8 77.824 593.92c0 135.168 108.544 243.712 243.712 243.712 51.2 0 98.304-14.336 139.264-45.056 6.144-2.048 12.288-4.096 18.432-4.096z" p-id="38138" fill="#8a8a8a"></path></svg>