<?xml version="1.0" standalone="no"?><!DOCTYPE svg PUBLIC "-//W3C//DTD SVG 1.1//EN" "http://www.w3.org/Graphics/SVG/1.1/DTD/svg11.dtd"><svg t="1547791442643" class="icon" style="" viewBox="0 0 1024 1024" version="1.1" xmlns="http://www.w3.org/2000/svg" p-id="39771" xmlns:xlink="http://www.w3.org/1999/xlink" width="200" height="200"><defs><style type="text/css"></style></defs><path d="M905.330762 490.562758c0 83.932598 0 167.862125 0 251.804956-13.246699 49.473785-48.710398 61.234643-95.472422 60.9737-200.646809-1.077541-401.307945-1.204431-601.948615 0.093121-47.197952 0.303922-82.104973-11.802814-95.493911-61.066821 0-83.942831 0-167.872359 0-251.804956 15.985066-28.345582 26.573215-58.639538 45.722344-84.642772C206.23048 340.624864 260.474918 277.852192 308.980655 212.860992c20.744463-27.792996 46.298466-39.207977 80.096223-38.789445 79.348186 0.983397 158.710698 0.899486 238.07014 0.847298 35.536354-0.021489 62.86784 13.675464 84.621283 42.389436 44.670385 58.97416 92.235704 115.783003 135.90632 175.460174C869.911064 423.154509 886.296243 457.822077 905.330762 490.562758zM505.990634 776.113283c99.003851 0 198.015889 0.167822 297.017694-0.062422 50.139957-0.125867 74.17435-22.748097 75.04416-73.131601 1.118474-64.197114 0.072655-128.435161 0.417509-192.652741 0.100284-19.127639-7.810896-27.163663-27.373441-26.90272-54.401004 0.721431-108.824521 0.806365-163.222455-0.041956-19.070334-0.302899-25.207102 7.335059-24.417109 25.469068 1.016143 23.13593-0.146333 46.37726 0.340761 69.554122 0.344854 16.303314-5.070482 24.517393-23.100114 24.410969-87.409792-0.542352-174.825724-0.532119-262.2304-0.00921-17.312294 0.104377-24.485671-6.968715-24.360827-23.617907 0.178055-24.087605-0.689708-48.185442 0.146333-72.241324 0.606821-17.370623-6.340405-23.712051-23.595394-23.502273-55.292304 0.638543-110.60405 0.606821-165.896354 0.031722-18.833951-0.199545-25.405623 8.91402-25.369807 26.13831 0.141216 64.21758-1.041726 128.466883 0.476861 192.651718 1.24434 52.413743 24.862247 73.782424 77.139891 73.865311C313.3338 776.228917 409.659659 776.113283 505.990634 776.113283zM860.734054 452.077236c-5.368264-10.610662-6.440689-14.083763-8.559956-16.720823C798.489408 368.720759 744.961284 301.961286 690.773128 235.734956c-19.803022-24.213471-46.307675-34.688034-77.804017-34.468023-72.221882 0.502443-144.518464-1.538029-216.641085 1.235131-20.289092 0.784876-46.417169 9.114588-59.021232 23.49204-58.696844 66.979484-113.716948 137.202848-169.58435 206.641337-3.719718 4.625344-6.874571 15.005762-4.457522 17.997909 3.484358 4.331655 12.305257 5.90243 18.871813 5.954619 56.18565 0.440022 112.372324 0.198521 168.557974 0.344854 9.480932 0.021489 18.960841 0.931209 31.198559 1.570775 0 30.80561 0.696872 59.162448-0.23536 87.469144-0.659009 20.183691 6.488785 29.246091 27.751041 29.004591 66.875107-0.74292 133.775796-0.774643 200.661136 0.021489 21.262256 0.251733 28.305673-8.328689 27.510564-28.79686-1.156336-29.842679-0.292666-59.760059-0.292666-94.122681C712.94101 452.077236 784.279778 452.077236 860.734054 452.077236z" p-id="39772" fill="#bfbfbf"></path></svg>