<?xml version="1.0" standalone="no"?><!DOCTYPE svg PUBLIC "-//W3C//DTD SVG 1.1//EN" "http://www.w3.org/Graphics/SVG/1.1/DTD/svg11.dtd"><svg t="1547778367432" class="icon" style="" viewBox="0 0 1024 1024" version="1.1" xmlns="http://www.w3.org/2000/svg" p-id="19154" data-spm-anchor-id="a313x.7781069.0.i4" xmlns:xlink="http://www.w3.org/1999/xlink" width="200" height="200"><defs><style type="text/css"></style></defs><path d="M810.666667 550.4c-59.733333 51.2-170.666667 89.6-298.666667 89.6s-238.933333-34.133333-298.666667-89.6V597.333333c0 72.533333 132.266667 128 298.666667 128s298.666667-55.466667 298.666667-128v-46.933333z m0-81.066667V422.4c-59.733333 51.2-170.666667 89.6-298.666667 89.6s-238.933333-34.133333-298.666667-89.6V469.333333c0 72.533333 132.266667 128 298.666667 128s298.666667-55.466667 298.666667-128z m42.666666-128v384c0 93.866667-153.6 170.666667-341.333333 170.666667s-341.333333-76.8-341.333333-170.666667V341.333333c0-93.866667 153.6-170.666667 341.333333-170.666666s341.333333 76.8 341.333333 170.666666z m-42.666666 384v-46.933333c-59.733333 51.2-170.666667 89.6-298.666667 89.6s-238.933333-34.133333-298.666667-89.6V725.333333c0 72.533333 132.266667 128 298.666667 128s298.666667-55.466667 298.666667-128z m-298.666667-256c166.4 0 298.666667-55.466667 298.666667-128s-132.266667-128-298.666667-128-298.666667 55.466667-298.666667 128 132.266667 128 298.666667 128z" fill="#d81e06" p-id="19155"></path></svg>