<?xml version="1.0" standalone="no"?><!DOCTYPE svg PUBLIC "-//W3C//DTD SVG 1.1//EN" "http://www.w3.org/Graphics/SVG/1.1/DTD/svg11.dtd"><svg t="1547775957986" class="icon" style="" viewBox="0 0 1124 1024" version="1.1" xmlns="http://www.w3.org/2000/svg" p-id="3372" xmlns:xlink="http://www.w3.org/1999/xlink" width="219.53125" height="200"><defs><style type="text/css"></style></defs><path d="M924.782461 925.417065c0 21.828657-17.462926 39.468572-39.055598 39.468572s-39.055597-17.698911-39.055597-39.468572l-0.353978-3.657775c0-1.533906 0.294982-3.067811 0.412975-4.601717C822.423758 743.826237 675.4638 616.453074 496.586805 614.447197c-1.415913 0.058996-2.831826 0.235985-4.247739 0.235986-1.415913 0-2.831826-0.176989-4.188742-0.235986-176.871118 2.005877-322.356168 126.547214-349.199516 296.869736 0.884946 3.362793 1.533906 6.843579 1.533905 10.442357l0.353978 3.716772c0 22.123639-17.757907 40.117532-39.64556 40.117531s-39.645561-17.993893-39.645561-40.117531l-0.058997-0.353979h-0.766952c0.117993-1.179927 0.353978-2.300858 0.471971-3.421789 0-3.303797 0.530967-6.430604 1.238923-9.498416 20.294751-159.762171 126.193236-289.023218 270.262373-344.656795-83.892839-54.335657-138.582474-150.440744-138.582474-260.173994 0-169.732557 130.381978-307.371089 298.226652-307.371089 167.785677 0 298.226652 137.638532 298.226652 307.371089 0 109.733249-54.630639 205.77934-138.523478 260.114997 143.066198 55.220603 248.492712 182.947744 269.908395 341.117014 1.474909 4.129746 2.418851 8.554474 2.418851 13.215187l0.412975 3.598778zM722.011936 307.371089c0-128.376102-102.830674-232.386703-229.731866-232.386702C365.378877 74.984387 262.548204 179.053984 262.548204 307.371089c0 128.317105 102.830674 232.386703 229.731866 232.386703 126.842196 0 229.731866-104.010601 229.731866-232.386703z m0 0" p-id="3373" fill="#d81e06"></path></svg>