<?xml version="1.0" standalone="no"?><!DOCTYPE svg PUBLIC "-//W3C//DTD SVG 1.1//EN" "http://www.w3.org/Graphics/SVG/1.1/DTD/svg11.dtd"><svg t="1547791751527" class="icon" style="" viewBox="0 0 1024 1024" version="1.1" xmlns="http://www.w3.org/2000/svg" p-id="50250" xmlns:xlink="http://www.w3.org/1999/xlink" width="200" height="200"><defs><style type="text/css"></style></defs><path d="M250.748245 563.985067a50.039467 50.039467 0 1 0 0 100.078933 50.039467 50.039467 0 0 0 0-100.078933z m677.546667-155.613867l-87.586133-228.898133c-16.520533-43.588267-52.258133-80.861867-119.808-80.861867h-84.48s-40.209067-1.672533-60.859734-1.672533h-89.326933c-20.650667 0-60.893867 1.672533-60.893867 1.672533H301.265579c-67.3792 0-103.150933 37.2736-119.637334 80.861867l-85.265066 228.898133c-34.816 4.471467-96.3584 45.806933-96.3584 123.938133v199.9872c0 19.592533-1.9456 75.6736 73.1136 75.6736h44.817066v64.682667c0 71.338667 78.848 73.728 78.848 0v-64.682667H827.874645v64.682667c1.262933 72.533333 80.0768 71.338667 78.813867 0v-64.682667h44.8512c72.192 0 73.147733-61.883733 73.147733-75.6736v-199.9872c0-78.1312-61.610667-119.432533-96.392533-123.938133zM245.764779 201.659733c8.2944-25.2928 20.650667-43.554133 49.595733-43.8272h429.124267c28.808533 0.273067 41.198933 18.5344 49.390933 43.8272l80.7936 212.48H166.268245l79.496534-212.48z m720.725333 479.812267a66.7648 66.7648 0 0 1-66.730667 66.730667H126.127445a66.798933 66.798933 0 0 1-66.7648-66.730667v-142.813867c0-36.829867 29.9008-66.696533 66.7648-66.696533h773.632c36.864 0 66.730667 29.866667 66.730667 66.696533v142.813867z m-165.137067-117.486933a50.039467 50.039467 0 1 0 0 100.1472 50.0736 50.0736 0 0 0 0-100.1472z" fill="#bfbfbf" p-id="50251"></path></svg>