<?xml version="1.0" standalone="no"?><!DOCTYPE svg PUBLIC "-//W3C//DTD SVG 1.1//EN" "http://www.w3.org/Graphics/SVG/1.1/DTD/svg11.dtd"><svg t="1547795109015" class="icon" style="" viewBox="0 0 1024 1024" version="1.1" xmlns="http://www.w3.org/2000/svg" p-id="68631" xmlns:xlink="http://www.w3.org/1999/xlink" width="200" height="200"><defs><style type="text/css"></style></defs><path d="M754.577297 872.835459c-69.078486 45.083676-152.160865 71.071135-242.355892 71.071136-85.268757 0-164.227459-23.247568-230.953513-63.87546a33.044757 33.044757 0 0 1-8.690162 15.221622l-97.861189 97.861189a33.210811 33.210811 0 0 1-46.965622-46.965622l97.833513-97.861189c1.632865-1.605189 3.348757-3.016649 5.175352-4.206703C134.060973 764.125405 73.340541 642.850595 73.340541 504.998054c0-245.787676 193.120865-438.908541 438.936216-438.90854 245.76 0 438.880865 193.120865 438.880865 438.90854 0 135.666162-58.838486 255.308108-152.908108 335.263135 4.760216 1.577514 9.243676 4.262054 13.035243 8.025946l97.861189 97.861189a33.210811 33.210811 0 0 1-46.993297 46.965622l-97.833514-97.833514a33.100108 33.100108 0 0 1-9.686486-22.417297z m-242.355892-740.324324c-209.08973 0-372.486919 163.369514-372.486919 372.486919s163.369514 372.486919 372.514595 372.486919c209.08973 0 372.459243-163.369514 372.459243-372.514595 0-209.08973-163.369514-372.459243-372.486919-372.459243z m-13.94854 215.150703a33.210811 33.210811 0 0 1 66.421621 0v175.076324a33.210811 33.210811 0 0 1-9.714162 23.468973l-164.531892 164.531892a33.210811 33.210811 0 0 1-46.965621-46.965622l154.790054-154.790054v-161.349189z m-187.917838-281.572324c0-8.773189-8.800865-17.546378-8.800865-26.347244-52.666811-43.865946-140.454054-43.865946-193.120865 0l-61.44 61.44c-43.893622 52.694486-43.893622 140.48173 0 193.148541 8.773189 0 17.546378 8.773189 26.319568 8.773189 43.893622-105.333622 131.680865-193.120865 237.014486-237.014486z m667.122162 35.120432l-61.44-61.44c-52.694486-52.694486-131.680865-52.694486-184.347675 0-8.773189 8.773189-8.773189 17.546378-17.574055 26.319568 105.361297 52.666811 193.120865 131.680865 237.014487 237.014486 8.773189-8.773189 17.574054-8.773189 26.347243-17.546378 43.893622-43.893622 43.893622-131.680865 0-184.347676z" p-id="68632" fill="#bfbfbf"></path></svg>