<?xml version="1.0" standalone="no"?><!DOCTYPE svg PUBLIC "-//W3C//DTD SVG 1.1//EN" "http://www.w3.org/Graphics/SVG/1.1/DTD/svg11.dtd"><svg t="1547792110403" class="icon" style="" viewBox="0 0 1024 1024" version="1.1" xmlns="http://www.w3.org/2000/svg" p-id="60422" xmlns:xlink="http://www.w3.org/1999/xlink" width="200" height="200"><defs><style type="text/css"></style></defs><path d="M512 106.666667C288 106.666667 106.666667 288 106.666667 512c0 64 14.933333 128 44.8 185.6 19.2 36.266667 42.666667 68.266667 70.4 96 27.733333 27.733333 57.6 53.333333 91.733333 70.4 59.733333 34.133333 128 51.2 198.4 51.2 224 0 405.333333-181.333333 405.333333-405.333333S736 106.666667 512 106.666667z m0 768c-61.866667 0-123.733333-14.933333-177.066667-46.933334-29.866667-17.066667-57.6-38.4-83.2-64-25.6-25.6-44.8-55.466667-61.866666-87.466666C162.133333 627.2 149.333333 569.6 149.333333 512c0-200.533333 162.133333-362.666667 362.666667-362.666667 29.866667 0 57.6 4.266667 85.333333 10.666667v349.866667c0 8.533333 0 17.066667-2.133333 25.6-6.4 21.333333-19.2 40.533333-40.533333 51.2s-42.666667 14.933333-64 8.533333c-44.8-12.8-72.533333-59.733333-59.733334-104.533333 6.4-21.333333 19.2-40.533333 40.533334-51.2 19.2-10.666667 42.666667-14.933333 64-8.533334 10.666667 2.133333 23.466667-4.266667 25.6-14.933333 2.133333-10.666667-4.266667-23.466667-14.933334-25.6-34.133333-10.666667-68.266667-6.4-98.133333 10.666667s-51.2 44.8-59.733333 78.933333c-17.066667 68.266667 23.466667 138.666667 91.733333 155.733333 10.666667 2.133333 21.333333 4.266667 32 4.266667 57.6 0 108.8-38.4 123.733333-96 2.133333-10.666667 4.266667-21.333333 4.266667-32V172.8c136.533333 51.2 234.666667 183.466667 234.666667 339.2 0 200.533333-162.133333 362.666667-362.666667 362.666667z" fill="#bfbfbf" p-id="60423"></path></svg>