<?xml version="1.0" standalone="no"?><!DOCTYPE svg PUBLIC "-//W3C//DTD SVG 1.1//EN" "http://www.w3.org/Graphics/SVG/1.1/DTD/svg11.dtd"><svg t="1547817907563" class="icon" style="" viewBox="0 0 1024 1024" version="1.1" xmlns="http://www.w3.org/2000/svg" p-id="5067" xmlns:xlink="http://www.w3.org/1999/xlink" width="200" height="200"><defs><style type="text/css"></style></defs><path d="M851.985342 46.237311c-12.776099 0-31.953029 6.390606-38.343635 12.781212l-632.669975 389.826954c-12.781212 12.786324-25.562423 25.562423-25.562424 44.734241V27.065494c0-12.781212-12.781212-25.562423-31.953029-25.562424-12.781212 0-25.562423 12.781212-25.562423 25.562424v964.986589c0 19.171817 12.781212 31.947917 25.562423 31.947917s25.562423-12.781212 25.562424-25.562423v-466.514224c0 19.171817 12.781212 31.953029 25.562423 38.343635l632.669975 396.21756c12.781212 6.385493 25.562423 12.781212 44.734241 12.781211 38.343635 0 76.692382-31.947917 76.692382-70.296664v-792.43512c0-38.338522-38.348747-70.296664-76.692382-70.296664z m19.171817 862.731784c0 12.786324-19.171817 19.171817-25.562423 12.786325l-639.060581-396.217561c-6.385493-6.390606-6.385493-12.781212-6.385494-12.781211s0-6.395718 6.385494-12.786324l632.675087-396.212448h12.7761c6.390606 0 19.171817 6.385493 19.171817 12.781212v792.430007z m0 0" fill="#ffffff" p-id="5068"></path></svg>