<?xml version="1.0" standalone="no"?><!DOCTYPE svg PUBLIC "-//W3C//DTD SVG 1.1//EN" "http://www.w3.org/Graphics/SVG/1.1/DTD/svg11.dtd"><svg t="1547817918400" class="icon" style="" viewBox="0 0 1024 1024" version="1.1" xmlns="http://www.w3.org/2000/svg" p-id="5240" xmlns:xlink="http://www.w3.org/1999/xlink" width="200" height="200"><defs><style type="text/css"></style></defs><path d="M172.014658 977.762689c12.776099 0 31.953029-6.390606 38.343635-12.781212l632.669975-389.826954c12.781212-12.786324 25.562423-25.562423 25.562424-44.73424101L868.59069201 996.934506c0 12.781212 12.781212 25.562423 31.95302899 25.562424 12.781212 0 25.562423-12.781212 25.562423-25.562424l0-964.986589c0-19.171817-12.781212-31.947917-25.562423-31.947917s-25.562423 12.781212-25.562424 25.562423l0 466.514224c0-19.171817-12.781212-31.953029-25.562423-38.343635l-632.669975-396.21756001c-12.781212-6.385493-25.562423-12.781212-44.734241-12.78121099-38.34363499 0-76.692382 31.947917-76.692382 70.29666399l0 792.43512002c0 38.338522 38.34874699 70.296664 76.692382 70.29666399z m-19.171817-862.73178401c0-12.786324 19.171817-19.171817 25.56242301-12.78632499l639.06058099 396.217561c6.385493 6.390606 6.385493 12.781212 6.385494 12.781211s0 6.395718-6.38549399 12.786324l-632.67508701 396.212448-12.7761 0c-6.390606 0-19.171817-6.385493-19.171817-12.781212l0-792.43000701z m0 0" fill="#ffffff" p-id="5241"></path></svg>