<?xml version="1.0" standalone="no"?><!DOCTYPE svg PUBLIC "-//W3C//DTD SVG 1.1//EN" "http://www.w3.org/Graphics/SVG/1.1/DTD/svg11.dtd"><svg t="1547626442106" class="icon" style="" viewBox="0 0 1024 1024" version="1.1" xmlns="http://www.w3.org/2000/svg" p-id="7405" xmlns:xlink="http://www.w3.org/1999/xlink" width="200" height="200"><defs><style type="text/css"></style></defs><path d="M746.7 597c-11.4-16.3-33.8-20.3-50.1-8.9L548 691.9V185.7c0-19.9-16.1-36-36-36s-36 16.1-36 36v504.7L327 587.2c-16.5-11.4-38.9-7.5-50 8.8-11.1 16.3-6.8 38.7 9.7 50.1l205.5 142.4c0.3 0.2 0.5 0.3 0.8 0.5 12.1 8.6 28.7 9.1 41.5 0.2l203.3-142.1c16.3-11.4 20.2-33.8 8.9-50.1z" p-id="7406" fill="#ffffff"></path><path d="M924 640c-19.9 0-36 16.1-36 36v189.3c0 12.6-6.7 22.7-15 22.7H151c-8.3 0-15-10.2-15-22.7V676c0-19.9-16.1-36-36-36s-36 16.1-36 36v197c0 48 39 87 87 87h722c48 0 87-39 87-87V676c0-19.9-16.1-36-36-36z" p-id="7407" fill="#ffffff"></path></svg>