<?xml version="1.0" standalone="no"?><!DOCTYPE svg PUBLIC "-//W3C//DTD SVG 1.1//EN" "http://www.w3.org/Graphics/SVG/1.1/DTD/svg11.dtd"><svg t="1547626206103" class="icon" style="" viewBox="0 0 1024 1024" version="1.1" xmlns="http://www.w3.org/2000/svg" p-id="4602" xmlns:xlink="http://www.w3.org/1999/xlink" width="200" height="200"><defs><style type="text/css"></style></defs><path d="M491.555556 129.777778c11.781333 0 21.333333 9.552 21.333333 21.333333s-9.552 21.333333-21.333333 21.333333H209.777778c-9.818667 0-17.777778 7.959111-17.777778 17.777778v647.111111c0 9.818667 7.959111 17.777778 17.777778 17.777778h604.444444c9.818667 0 17.777778-7.959111 17.777778-17.777778V532.444444c0-11.781333 9.552-21.333333 21.333333-21.333333s21.333333 9.552 21.333334 21.333333V837.333333c0 33.383111-27.061333 60.444444-60.444445 60.444445H209.777778c-33.383111 0-60.444444-27.061333-60.444445-60.444445V190.222222c0-33.383111 27.061333-60.444444 60.444445-60.444444h281.777778z" p-id="4603" fill="#ffffff"></path><path d="M832.444444 205.706667L527.466667 526.695111c-8.115556 8.540444-21.619556 8.885333-30.161778 0.769778-8.540444-8.113778-8.885333-21.617778-0.769778-30.16L806.037333 171.555556H664c-11.781333 0-21.333333-9.552-21.333333-21.333334s9.552-21.333333 21.333333-21.333333h190.222222c11.781333 0 21.333333 9.552 21.333334 21.333333 0 1.493333-0.152889 2.947556-0.444445 4.353778V346.666667c0 11.781333-9.552 21.333333-21.333333 21.333333s-21.333333-9.552-21.333334-21.333333v-140.96z" p-id="4604" fill="#ffffff"></path></svg>