<?xml version="1.0" standalone="no"?><!DOCTYPE svg PUBLIC "-//W3C//DTD SVG 1.1//EN" "http://www.w3.org/Graphics/SVG/1.1/DTD/svg11.dtd"><svg t="1547806888487" class="icon" style="" viewBox="0 0 1024 1024" version="1.1" xmlns="http://www.w3.org/2000/svg" p-id="28127" xmlns:xlink="http://www.w3.org/1999/xlink" width="200" height="200"><defs><style type="text/css"></style></defs><path d="M62.542 65.146c297.588-1.027 595.177-0.514 892.764-0.206v893.28c-297.588 0.361-595.177 0.822-892.764-0.211-1.335-65.045-0.156-130.042-0.514-195.088 0.358-232.59-0.718-465.184 0.514-697.775z m44.628 45.348c-0.666 22.52-0.768 45.042-0.666 67.613 0.564 244.853-0.822 489.706 0.666 734.555 266.912 0.571 533.822 1.232 800.682-0.35-0.204-267.175-0.204-534.343 0-801.51-52.581-1.744-105.164-0.41-157.746-0.82-214.277 0.36-428.604-0.615-642.936 0.512z" fill="#d81e06" p-id="28128"></path><path d="M494.021 229.663c13.286-9.438 33.806-1.283 36.986 14.673 1.642 80.694-2.256 161.54 1.488 242.185 74.282-1.078 148.564 0.102 222.843-0.822 12.263 0.461 25.294-0.616 36.837 4.464 15.029 10.26 12.619 38.114-5.647 43.757-85.155 0.668-170.363-0.103-255.52-0.103-0.256 81.619 0.666 163.339 0.05 244.955-4.309 14.313-23.033 23.7-36.013 14.365-13.951-8.208-11.181-26.574-12.053-40.271 0.872-72.485-0.258-145.024 0.818-217.51-86.285-3.078-172.724-1.437-259.062-0.566-6.72-9.336-17.544-19.34-12.413-32.009 4.821-17.391 25.497-16.623 39.912-17.03 76.95 0.357 153.948 0.613 230.95 0.101 0.358-73.614 0.202-147.18-0.156-220.793 0.975-12.004-1.331-28.315 10.98-35.396z" fill="#d81e06" p-id="28129"></path></svg>