<?xml version="1.0" standalone="no"?><!DOCTYPE svg PUBLIC "-//W3C//DTD SVG 1.1//EN" "http://www.w3.org/Graphics/SVG/1.1/DTD/svg11.dtd"><svg t="1547626338251" class="icon" style="" viewBox="0 0 1024 1024" version="1.1" xmlns="http://www.w3.org/2000/svg" p-id="6197" xmlns:xlink="http://www.w3.org/1999/xlink" width="200" height="200"><defs><style type="text/css"></style></defs><path d="M960 379.5c0-149.2-117.2-270.7-261.1-270.7-71.1 0-138.3 30.6-186.9 82.9-48.6-52.3-116-82.9-186.9-82.9C181.2 108.8 64 230.2 64 379.5c0 5 0.5 9.5 0.9 13.2-0.1 1.2-0.1 2.4-0.1 3.7 0 26.4 6.4 55.5 19 86.3 0.4 1.1 0.8 2.2 1.3 3.2 79.6 190.7 385.8 410 398.8 420.1 8.1 6.2 17.7 9.3 27.4 9.3 9.8 0 19.5-3.2 27.7-9.5 11.1-8.8 272.3-196.7 376-374.4 3.9-6 6.9-11.8 9.5-16.8 0.8-1.6 1.5-3.2 2.4-4.7l0.3-0.7c0.3-0.6 0.7-1.3 1.1-1.8 6.2-12.1 11.1-23.3 15.1-34.2 10.8-28.2 16-53.3 16-76.7 0-1.8-0.1-3.4-0.2-4.7 0.4-3.2 0.8-7.4 0.8-12.3z m0 0" fill="#d81e06" p-id="6198"></path></svg>