<?xml version="1.0" standalone="no"?><!DOCTYPE svg PUBLIC "-//W3C//DTD SVG 1.1//EN" "http://www.w3.org/Graphics/SVG/1.1/DTD/svg11.dtd"><svg t="1547626302079" class="icon" style="" viewBox="0 0 1024 1024" version="1.1" xmlns="http://www.w3.org/2000/svg" p-id="6024" xmlns:xlink="http://www.w3.org/1999/xlink" width="200" height="200"><defs><style type="text/css"></style></defs><path d="M702.35 119.895c-79.369 0-141.863 39.544-190.406 104.738-48.6-65.25-110.981-104.738-190.406-104.738-143.1 0-259.538 126.394-259.538 281.756 0 92.7 41.737 157.725 75.206 209.925 97.425 151.762 330.975 315.675 341.269 323.663 10.012 7.65 21.769 11.475 33.356 11.475 11.7 0 23.344-3.825 33.356-11.475 10.406-7.988 243.9-171.9 341.325-323.663 33.469-52.2 75.262-117.225 75.262-209.925 0.056-155.362-116.438-281.756-259.425-281.756l0 0 0 0zM845.337 576.308c-94.725 147.6-334.012 314.438-334.012 314.438s-239.287-166.838-334.069-314.438c-34.987-54.45-66.206-106.256-66.206-177.806 0-123.525 92.25-223.706 206.044-223.706 84.15 0 144.394 54.788 176.512 133.2l0-0.338 0.056 0c2.363 8.156 9.394 14.119 17.606 14.119 8.269 0 15.244-5.963 17.606-14.119l0.225 0c32.119-78.244 92.362-132.863 176.287-132.863 113.85 0 206.1 100.181 206.1 223.706 0.113 71.55-31.163 123.356-66.15 177.806l0 0 0 0z" p-id="6025" fill="#ffffff"></path></svg>