<?xml version="1.0" standalone="no"?><!DOCTYPE svg PUBLIC "-//W3C//DTD SVG 1.1//EN" "http://www.w3.org/Graphics/SVG/1.1/DTD/svg11.dtd"><svg t="1547807430155" class="icon" style="" viewBox="0 0 1024 1024" version="1.1" xmlns="http://www.w3.org/2000/svg" p-id="29759" xmlns:xlink="http://www.w3.org/1999/xlink" width="200" height="200"><defs><style type="text/css"></style></defs><path d="M512 960c-247.04 0-448-200.96-448-448s200.96-448 448-448 448 200.96 448 448-200.96 448-448 448zM512 147.84A364.608 364.608 0 0 0 147.84 512 364.608 364.608 0 0 0 512 876.16 364.608 364.608 0 0 0 876.16 512 364.608 364.608 0 0 0 512 147.84z" p-id="29760" fill="#d81e06"></path><path d="M604.672 649.6a42.624 42.624 0 0 1-24.32-7.68L466.176 562.56a42.752 42.752 0 0 1-18.368-35.136v-197.12a42.752 42.752 0 0 1 85.504 0v174.784l95.808 66.624a42.752 42.752 0 0 1-24.512 77.824z" p-id="29761" fill="#d81e06"></path></svg>