<?xml version="1.0" standalone="no"?><!DOCTYPE svg PUBLIC "-//W3C//DTD SVG 1.1//EN" "http://www.w3.org/Graphics/SVG/1.1/DTD/svg11.dtd"><svg t="1547818048843" class="icon" style="" viewBox="0 0 1040 1024" version="1.1" xmlns="http://www.w3.org/2000/svg" p-id="6313" xmlns:xlink="http://www.w3.org/1999/xlink" width="203.125" height="200"><defs><style type="text/css"></style></defs><path d="M520.718841 24.857971c-272.881159 0-494.005797 221.124638-494.005798 494.005797C26.713043 791.744928 247.837681 1012.869565 520.718841 1012.869565 793.6 1012.869565 1014.724638 791.744928 1014.724638 518.863768c0-272.881159-221.124638-494.005797-494.005797-494.005797z m0 917.518841C287.165217 942.376812 97.391304 752.417391 97.391304 518.863768S287.350725 95.350725 520.904348 95.350725C754.272464 95.536232 944.231884 285.310145 944.231884 518.863768S754.272464 942.376812 520.718841 942.376812zM430.376812 745.924638c-2.782609 0-5.37971-0.742029-7.976812-1.855073-5.936232-2.968116-9.646377-9.089855-9.646377-15.768116V325.008696c0-6.492754 3.710145-12.614493 9.46087-15.582609 5.750725-2.968116 12.8-2.597101 18.17971 1.113043l282.342029 196.452174c4.637681 3.33913 7.42029 8.533333 7.605797 14.284058 0 5.750725-2.597101 11.130435-7.234783 14.469566L440.950725 742.585507c-3.153623 2.226087-6.863768 3.33913-10.573913 3.339131z m0 0" p-id="6314" fill="#ffffff"></path></svg>