<?xml version="1.0" standalone="no"?><!DOCTYPE svg PUBLIC "-//W3C//DTD SVG 1.1//EN" "http://www.w3.org/Graphics/SVG/1.1/DTD/svg11.dtd"><svg t="1547805574939" class="icon" style="" viewBox="0 0 1181 1024" version="1.1" xmlns="http://www.w3.org/2000/svg" p-id="9535" xmlns:xlink="http://www.w3.org/1999/xlink" width="230.6640625" height="200"><defs><style type="text/css"></style></defs><path d="M1063.384615 1024H118.153846a118.153846 118.153846 0 0 1-118.153846-118.153846V118.153846a118.153846 118.153846 0 0 1 118.153846-118.153846h945.230769a118.153846 118.153846 0 0 1 118.153847 118.153846v787.692308a118.153846 118.153846 0 0 1-118.153847 118.153846z m78.769231-905.846154a78.769231 78.769231 0 0 0-78.769231-78.769231H118.153846a78.769231 78.769231 0 0 0-78.769231 78.769231v787.692308a78.769231 78.769231 0 0 0 78.769231 78.769231h945.230769a78.769231 78.769231 0 0 0 78.769231-78.769231V118.153846z" fill="#d81e06" p-id="9536"></path><path d="M777.846154 551.384615H630.153846v147.692308a29.538462 29.538462 0 0 1-59.076923 0V551.384615h-147.692308a29.538462 29.538462 0 0 1 0-59.076923H571.076923v-147.692307a29.538462 29.538462 0 0 1 59.076923 0V492.307692h147.692308a29.538462 29.538462 0 0 1 0 59.076923z" fill="#d81e06" p-id="9537"></path></svg>