<?xml version="1.0" standalone="no"?><!DOCTYPE svg PUBLIC "-//W3C//DTD SVG 1.1//EN" "http://www.w3.org/Graphics/SVG/1.1/DTD/svg11.dtd"><svg t="1547626637602" class="icon" style="" viewBox="0 0 1024 1024" version="1.1" xmlns="http://www.w3.org/2000/svg" p-id="13777" xmlns:xlink="http://www.w3.org/1999/xlink" width="200" height="200"><defs><style type="text/css"></style></defs><path d="M789.395798 172.779112 265.644149 172.779112c-63.59848 0-112.232131 48.63365-112.232131 112.232131l0 299.286364 0 0 0 187.054233c0 11.223622 7.482415 18.705014 18.705014 18.705014 7.482415 0 11.223622-3.741207 14.96483-7.482415l123.455753-86.044702 478.858182 0c63.59848 0 112.232131-48.63365 112.232131-112.232131L901.627928 285.011242C901.628952 221.412762 852.994278 172.779112 789.395798 172.779112L789.395798 172.779112zM864.2179 580.557422c0 41.152259-33.669844 74.822103-74.822103 74.822103L303.055201 655.379525c-3.741207 0-11.223622 0-14.96483 3.741207l-97.268324 71.080895L190.822047 356.092138l0-3.741207 0-71.080895c0-41.152259 33.669844-74.822103 74.822103-74.822103l523.751648 0c41.152259 0 74.822103 33.669844 74.822103 74.822103L864.2179 580.557422 864.2179 580.557422z" p-id="13778" fill="#ffffff"></path><path d="M298.087049 321.600579l458.866872 0 0 36.534078-458.866872 0 0-36.534078Z" p-id="13779" fill="#ffffff"></path><path d="M298.087049 415.127695l458.866872 0 0 36.534078-458.866872 0 0-36.534078Z" p-id="13780" fill="#ffffff"></path><path d="M298.087049 502.370689l309.807998 0 0 36.534078-309.807998 0 0-36.534078Z" p-id="13781" fill="#ffffff"></path></svg>