<?xml version="1.0" standalone="no"?><!DOCTYPE svg PUBLIC "-//W3C//DTD SVG 1.1//EN" "http://www.w3.org/Graphics/SVG/1.1/DTD/svg11.dtd"><svg t="1547807443829" class="icon" style="" viewBox="0 0 1024 1024" version="1.1" xmlns="http://www.w3.org/2000/svg" p-id="30573" xmlns:xlink="http://www.w3.org/1999/xlink" width="200" height="200"><defs><style type="text/css"></style></defs><path d="M722.905454 607.550193a41.193 41.435 0 1 0 84.306104 0 41.193 41.435 0 1 0-84.306104 0Z" p-id="30574" fill="#d81e06"></path><path d="M813.639968 451.827549l-1.303692 0 0-69.349461c0-67.840084-55.229882-123.030058-123.125225-123.030058L343.930143 259.44803c-67.88204 0-123.111922 55.271838-123.111922 123.221416l0 69.158103-1.303692 0c-87.998193 0-159.597905 71.532173-159.597905 159.447479s71.600735 159.433152 159.597905 159.433152l12.143575 0 0 71.164806 58.078767 0 0-71.164806 446.282253 0 0 71.164806 58.077743 0 0-71.164806 19.543102 0c87.998193 0 159.597905-71.517847 159.597905-159.433152S901.638161 451.827549 813.639968 451.827549zM262.971273 382.669446c0-44.705178 36.32123-81.068364 80.95887-81.068364l345.281931 0c44.650943 0 80.972173 36.280298 80.972173 80.875982l0 69.349461-507.21195 0L262.972297 382.669446zM813.639968 728.555128 219.514529 728.555128c-64.75277 0-117.444852-52.609195-117.444852-117.2801s52.692083-117.293403 117.444852-117.293403l594.126462 0c64.75277 0 117.444852 52.623521 117.444852 117.293403S878.393761 728.555128 813.639968 728.555128z" p-id="30575" fill="#d81e06"></path><path d="M607.480608 212.860992l0-26.6428c0-14.713097-11.929704-26.640754-26.828019-26.640754L452.484512 159.577438c-14.81645 0-26.822902 11.824303-26.813692 26.640754l0.01535 26.6428L607.480608 212.860992z" p-id="30576" fill="#d81e06"></path><path d="M218.545458 607.550193a41.193 41.435 0 1 0 84.306104 0 41.193 41.435 0 1 0-84.306104 0Z" p-id="30577" fill="#d81e06"></path></svg>