<?xml version="1.0" standalone="no"?><!DOCTYPE svg PUBLIC "-//W3C//DTD SVG 1.1//EN" "http://www.w3.org/Graphics/SVG/1.1/DTD/svg11.dtd"><svg t="1547817846563" class="icon" style="" viewBox="0 0 1024 1024" version="1.1" xmlns="http://www.w3.org/2000/svg" p-id="1101" xmlns:xlink="http://www.w3.org/1999/xlink" width="200" height="200"><defs><style type="text/css"></style></defs><path d="M656.807 220.522h-360.94v-103.93c0-37.82-26.05-52.047-57.862-31.621L44.373 209.189c-31.867 20.426-31.867 53.822 0 74.22l193.632 124.245c31.84 20.426 57.862 6.172 57.862-31.648V289.28h343.737c189.863 0 292.181 85.142 292.181 274.978 0 144.015-56.47 274.978-292.181 274.978H158.378c-0.219 0-0.41 0.137-0.628 0.164-0.518-0.028-1.01-0.164-1.53-0.164-23.729 0-42.954 19.251-42.954 42.98s19.223 42.954 42.954 42.954c0.518 0 1.01-0.137 1.53-0.164 0.219 0 0.41 0.164 0.628 0.164h498.429c189.863 0 343.737-119.521 343.737-309.357v-103.11c0-189.863-153.873-292.181-343.737-292.181z m0 0z" p-id="1102" fill="#ffffff"></path></svg>