<?xml version="1.0" standalone="no"?><!DOCTYPE svg PUBLIC "-//W3C//DTD SVG 1.1//EN" "http://www.w3.org/Graphics/SVG/1.1/DTD/svg11.dtd"><svg t="1547805786967" class="icon" style="" viewBox="0 0 1024 1024" version="1.1" xmlns="http://www.w3.org/2000/svg" p-id="22249" xmlns:xlink="http://www.w3.org/1999/xlink" width="200" height="200"><defs><style type="text/css"></style></defs><path d="M683.652 232.318l197.262-93.506c18.689-9.223 26.362-31.851 17.139-50.54-9.018-18.272-30.912-26.085-49.46-17.65L629.762 174.353a37.732 37.732 0 0 0-21.569 34.095V490.64a173.916 173.916 0 0 0-99.467-31.152c-96.455 0-174.933 78.471-174.933 174.933 0 96.455 78.471 174.927 174.933 174.927 96.455 0 174.926-78.471 174.926-174.927V232.318zM508.719 733.894c-54.852 0-99.474-44.621-99.474-99.468 0-54.846 44.621-99.468 99.474-99.468s99.474 44.615 99.474 99.461c0 54.848-44.621 99.475-99.474 99.475zM349.142 481.39c14.337-6.213 20.921-22.877 14.702-37.214s-22.877-20.927-37.214-14.702c-38.868 16.853-68.85 47.828-84.413 87.237-15.57 39.408-14.859 82.514 2 121.382 6.221 14.335 22.88 20.918 37.22 14.708 14.338-6.218 20.92-22.882 14.702-37.22a101.372 101.372 0 0 1-1.283-78.075 101.276 101.276 0 0 1 54.286-56.116z m-91.732-91.331c14.338-6.218 20.92-22.882 14.702-37.22-6.218-14.338-22.882-20.92-37.22-14.702-120.024 52.061-175.33 192.062-123.282 312.092 6.221 14.335 22.88 20.918 37.22 14.708 14.338-6.218 20.92-22.882 14.702-37.22-39.635-91.399 2.478-198.01 93.878-237.658z m538.11 251.7c-5.123-14.767-21.246-22.585-36.013-17.462-14.767 5.122-22.585 21.246-17.462 36.013 18.437 53.148-9.803 111.384-62.945 129.827-14.829 4.932-22.853 20.952-17.92 35.781s20.952 22.853 35.781 17.92c0.231-0.077 0.461-0.156 0.689-0.239 82.621-28.668 126.526-119.213 97.87-201.84z m129.305 5.76c-5.495-14.638-21.815-22.05-36.453-16.555-14.119 5.3-21.605 20.738-17.022 35.105 15.821 45.59 12.935 94.619-8.124 138.046-21.059 43.427-57.764 76.056-103.36 91.865-14.767 5.122-22.585 21.246-17.462 36.013 5.122 14.767 21.246 22.585 36.013 17.462 59.877-20.77 108.082-63.618 135.732-120.659 27.648-57.021 31.44-121.4 10.676-181.277z" p-id="22250" fill="#d81e06"></path></svg>